<svg id="Layer_5" enable-background="new 0 0 64 64" height="512" viewBox="0 0 64 64" width="512" xmlns="http://www.w3.org/2000/svg"><path d="m14 40h4v-29h2v-4c0-2.206-1.794-4-4-4s-4 1.794-4 4v4h2z"/><path d="m31 31h1v-2h-3v2c0 4.866 2.222 9.358 5.836 12.342l-.183-2.928c-2.292-2.524-3.653-5.854-3.653-9.414z"/><path d="m60 31h1c0 3.559-1.361 6.889-3.653 9.414l-.183 2.929c3.614-2.985 5.836-7.477 5.836-12.343v-2h-3z"/><path d="m15 50h2v11h-2z"/><path d="m19 50h2v11h-2z"/><path d="m27 48h2v13h-2z"/><path d="m23.781 50h-.781v11h2v-13h-.719z"/><path d="m20.899 42c-.465 2.279-2.484 4-4.899 4s-4.434-1.721-4.899-4h-2.82l1.5 6h12.438l1.5-6z"/><path d="m3 48h2v13h-2z"/><path d="m11 50h2v11h-2z"/><path d="m6.219 42h-.219c-1.654 0-3 1.346-3 3v1h4.219z"/><path d="m7.719 48h-.719v13h2v-11h-.781z"/><path d="m16 44c1.302 0 2.402-.839 2.816-2h-5.631c.413 1.161 1.513 2 2.815 2z"/><path d="m26 42h-.219l-1 4h4.219v-1c0-1.654-1.346-3-3-3z"/><circle cx="25" cy="23" r="3"/><circle cx="49" cy="6" r="3"/><circle cx="33" cy="7" r="4"/><circle cx="60" cy="15" r="3"/><path d="m35 24c.007.014.014.071.017.13l.036.747-.706.246c-.805.28-1.347 1.035-1.347 1.877 0 1.103.897 2 2 2h22c1.103 0 2-.897 2-2 0-.842-.542-1.597-1.347-1.877l-.706-.246.054-.919c-.001-1.612-1.347-2.958-3.001-2.958.001.008-.063.016-.128.02l-.748.036-.246-.707c-.28-.807-1.035-1.349-1.878-1.349-.179 0-.368.034-.597.105l-.701.221-.42-.604c-.751-1.078-1.977-1.722-3.282-1.722s-2.531.644-3.282 1.723l-.42.604-.701-.221c-.229-.072-.418-.106-.597-.106-.842 0-1.597.542-1.877 1.347l-.246.706-.919-.054c-1.612.001-2.958 1.347-2.958 3.001zm18 1h2v2h-2zm-6-4h2v2h-2zm-4 4h2v2h-2zm-4-3h2v2h-2z"/><path d="m53 48h-14v-2.177c-1.531-.62-2.928-1.461-4.164-2.481l.928 14.845c.098 1.578 1.414 2.813 2.994 2.813h14.484c1.58 0 2.896-1.235 2.994-2.813l.928-14.845c-1.236 1.021-2.634 1.862-4.164 2.482z"/><path d="m39 43.643v-1.643h14v1.643c1.67-.793 3.138-1.898 4.347-3.23l.589-9.413h-23.872l.588 9.414c1.21 1.332 2.678 2.436 4.348 3.229z"/><path d="m41 44h10v2h-10z"/></svg>