<svg id="Layer_1" height="512" viewBox="0 0 512 512" width="512" xmlns="http://www.w3.org/2000/svg" data-name="Layer 1"><path d="m155.712 390h-48.827a25.395 25.395 0 0 0 48.827 0z"/><path d="m258.6 390h-48.826a25.4 25.4 0 0 0 48.828 0z"/><path d="m337.078 422.4c-19.337 0-35.453-14.4-38.767-32.4h-25.356c-3.313 18-19.43 32.4-38.767 32.4s-35.454-14.4-38.767-32.4h-25.356c-3.313 18-19.43 32.4-38.767 32.4s-35.453-14.4-38.767-32.4h-12.531v45.765a15.992 15.992 0 0 0 13 15.561v23.174a7 7 0 0 0 14 0v-22.5h76v22.5a7 7 0 0 0 14 0v-22.5h75v22.5a7 7 0 0 0 14 0v-22.5h75v22.5a7 7 0 0 0 14 0v-23.176a16 16 0 0 0 13-15.559v-45.765h-12.155c-3.314 18-19.43 32.4-38.767 32.4z"/><path d="m361.491 390h-48.827a25.395 25.395 0 0 0 48.827 0z"/><path d="m94.047 30.752c-6.77.892-14.047 11.697-14.047 27.196v318.052h308v-318.052c0-10.564 2.79-19.948 7.162-26.948h-300.131a9.2 9.2 0 0 1 -.984-.248zm253.384 297.248h15a7 7 0 1 1 0 14h-15a7 7 0 0 1 0-14zm-65.1 0h32.55a7 7 0 0 1 0 14h-32.55a7 7 0 0 1 0-14zm-65.1 0h32.55a7 7 0 0 1 0 14h-32.55a7 7 0 0 1 0-14zm-65.1 0h32.55a7 7 0 1 1 0 14h-32.55a7 7 0 1 1 0-14zm-47.55 0h15a7 7 0 1 1 0 14h-15a7 7 0 0 1 0-14z"/><path d="m418.236 31h-2.467c-6.669 1-13.769 11.716-13.769 26.948v286.052h8v24.086a7 7 0 0 0 14 0v-25.239a7.021 7.021 0 0 0 -.134-1.362 16.126 16.126 0 0 0 8.134-13.839v-269.698c0-15.232-7.1-25.948-13.764-26.948z"/></svg>