<?xml version="1.0" encoding="utf-8"?>
<!-- Generator: Adobe Illustrator 23.0.1, SVG Export Plug-In . SVG Version: 6.00 Build 0)  -->
<svg version="1.1" id="Layer_1" xmlns="http://www.w3.org/2000/svg" xmlns:xlink="http://www.w3.org/1999/xlink" x="0px" y="0px"
	 viewBox="0 0 1366 768" style="enable-background:new 0 0 1366 768;" xml:space="preserve">
<style type="text/css">
	.st0{fill:#21B2C1;}
	.st1{fill:#B9D5EA;}
	.st2{clip-path:url(#SVGID_2_);fill:#322E63;}
	.st3{fill:#1F4287;}
	.st4{fill:#322E63;}
	.st5{fill:#FF525F;}
	.st6{fill:#EA4468;}
	.st7{fill:#21E6C1;}
</style>
<path class="st0" d="M470.5,679.4V106.2c0-21.1,17.3-38.4,38.4-38.4h410.7c21.1,0,38.4,17.3,38.4,38.4v573.2
	c0,21.1-17.3,38.4-38.4,38.4H508.9C487.8,717.8,470.5,700.5,470.5,679.4L470.5,679.4z M470.5,679.4"/>
<path class="st1" d="M471.8,674.4V111c0-5.3,4.3-9.6,9.6-9.6h430.3c5.3,0,9.6,4.3,9.6,9.6v563.4c0,5.3-4.3,9.6-9.6,9.6H481.4
	C476.2,684,471.8,679.6,471.8,674.4L471.8,674.4z M471.8,674.4"/>
<g>
	<defs>
		<rect id="SVGID_1_" x="400" y="43" width="565.9" height="683.8"/>
	</defs>
	<clipPath id="SVGID_2_">
		<use xlink:href="#SVGID_1_"  style="overflow:visible;"/>
	</clipPath>
	<path class="st2" d="M911.8,692H481.4c-9.7,0-17.6-7.9-17.6-17.6V111c0-9.7,7.9-17.6,17.6-17.6h430.3c9.7,0,17.6,7.9,17.6,17.6
		v563.4C929.4,684,921.5,692,911.8,692L911.8,692z M481.4,109.4c-0.9,0-1.6,0.7-1.6,1.6v563.4c0,0.9,0.7,1.6,1.6,1.6h430.3
		c0.9,0,1.6-0.7,1.6-1.6V111c0-0.9-0.7-1.6-1.6-1.6H481.4z M481.4,109.4"/>
	<path class="st2" d="M919.5,725.8H508.9c-25.6,0-46.4-20.8-46.4-46.4V106.2c0-25.6,20.8-46.4,46.4-46.4h410.7
		c25.6,0,46.4,20.8,46.4,46.4v573.2C965.9,705,945.1,725.8,919.5,725.8L919.5,725.8z M508.9,75.8c-16.8,0-30.4,13.6-30.4,30.4v573.2
		c0,16.8,13.6,30.4,30.4,30.4h410.7c16.8,0,30.4-13.6,30.4-30.4V106.2c0-16.8-13.6-30.4-30.4-30.4H508.9z M508.9,75.8"/>
</g>
<path class="st0" d="M408,679.4V106.2c0-21.1,17.3-38.4,38.4-38.4h394.2c21.1,0,38.4,17.3,38.4,38.4v573.2
	c0,21.1-17.3,38.4-38.4,38.4H446.4C425.3,717.8,408,700.5,408,679.4L408,679.4z M408,679.4"/>
<path class="st3" d="M408,679.4V106.2c0-21.1,17.3-38.4,38.4-38.4H809c21.1,0,38.4,17.3,38.4,38.4v573.2c0,21.1-17.3,38.4-38.4,38.4
	H446.4C425.3,717.8,408,700.5,408,679.4L408,679.4z M408,679.4"/>
<path class="st4" d="M840.6,725.8H446.4c-25.6,0-46.4-20.8-46.4-46.4V106.2c0-25.6,20.8-46.4,46.4-46.4h394.2
	c25.6,0,46.4,20.8,46.4,46.4v573.2C887,705,866.2,725.8,840.6,725.8L840.6,725.8z M446.4,75.8c-16.8,0-30.4,13.6-30.4,30.4v573.2
	c0,16.8,13.6,30.4,30.4,30.4h394.2c16.8,0,30.4-13.6,30.4-30.4V106.2c0-16.8-13.6-30.4-30.4-30.4H446.4z M446.4,75.8"/>
<path class="st0" d="M602.7,253.5l-58.2-38.7l-58.2,38.7v-168h116.4V253.5z M602.7,253.5"/>
<path class="st5" d="M602.7,219.1l-58.2-38.7l-58.2,38.7V70.3c0-10.6,8.6-19.2,19.2-19.2h78c10.6,0,19.2,8.6,19.2,19.2L602.7,219.1
	L602.7,219.1z M602.7,219.1"/>
<path class="st6" d="M602.7,212.7l-58.2-40.2l-58.2,40.2v-117c0-11,8.6-19.9,19.2-19.9h78c10.6,0,19.2,8.9,19.2,19.9L602.7,212.7
	L602.7,212.7z M602.7,212.7"/>
<path class="st4" d="M602.7,227.1c-1.5,0-3.1-0.5-4.4-1.4L544.6,190l-53.8,35.8c-2.5,1.6-5.6,1.8-8.2,0.4c-2.6-1.4-4.2-4.1-4.2-7
	V70.3c0-15,12.2-27.2,27.2-27.2h78c15,0,27.2,12.2,27.2,27.2v148.8c0,3-1.6,5.7-4.2,7C605.4,226.8,604.1,227.1,602.7,227.1
	L602.7,227.1z M505.5,59.1c-6.2,0-11.2,5-11.2,11.2v133.8l45.8-30.5c2.7-1.8,6.2-1.8,8.9,0l45.8,30.5V70.3c0-6.2-5-11.2-11.2-11.2
	H505.5z M505.5,59.1"/>
<path class="st7" d="M770.1,313.4h-135c-4.4,0-8-3.6-8-8c0-4.4,3.6-8,8-8h135c4.4,0,8,3.6,8,8C778.1,309.8,774.5,313.4,770.1,313.4
	L770.1,313.4z M770.1,376.8h-63c-4.4,0-8-3.6-8-8c0-4.4,3.6-8,8-8h63c4.4,0,8,3.6,8,8C778.1,373.2,774.5,376.8,770.1,376.8
	L770.1,376.8z M659.2,376.8H513c-4.4,0-8-3.6-8-8c0-4.4,3.6-8,8-8h146.2c4.4,0,8,3.6,8,8C667.2,373.2,663.7,376.8,659.2,376.8
	L659.2,376.8z M770.1,435.8H513c-4.4,0-8-3.6-8-8c0-4.4,3.6-8,8-8h257c4.4,0,8,3.6,8,8C778.1,432.2,774.5,435.8,770.1,435.8
	L770.1,435.8z M770.1,496.3H645.4c-4.4,0-8-3.6-8-8c0-4.4,3.6-8,8-8h124.6c4.4,0,8,3.6,8,8C778.1,492.7,774.5,496.3,770.1,496.3
	L770.1,496.3z M586.2,496.3H513c-4.4,0-8-3.6-8-8c0-4.4,3.6-8,8-8h73.1c4.4,0,8,3.6,8,8C594.2,492.7,590.6,496.3,586.2,496.3
	L586.2,496.3z M586.2,496.3"/>
</svg>
