<?xml version="1.0" encoding="utf-8"?>
<!-- Generator: Adobe Illustrator 23.0.1, SVG Export Plug-In . SVG Version: 6.00 Build 0)  -->
<svg version="1.1" id="Layer_1" xmlns="http://www.w3.org/2000/svg" xmlns:xlink="http://www.w3.org/1999/xlink" x="0px" y="0px"
	 viewBox="0 0 1366 768" style="enable-background:new 0 0 1366 768;" xml:space="preserve">
<style type="text/css">
	.st0{fill:#FFFFFF;}
	.st1{fill:#0CE5BB;}
	.st2{fill:#B9D5EA;}
	.st3{clip-path:url(#SVGID_2_);fill:#FFFFFF;}
	.st4{clip-path:url(#SVGID_2_);fill:#322E63;}
	.st5{fill:#322E63;}
	.st6{fill:#198EBC;}
	.st7{fill:#071E3D;}
	.st8{fill:#1F4287;}
	.st9{fill:#FF525F;}
	.st10{fill:#EA4468;}
</style>
<g>
	<path class="st0" d="M560.5,604.2l-206.2,77.1c-5.2,1.9-9.4-0.2-9.4-4.6V353.5c0-4.5,4.2-9.7,9.4-11.6l206.2-77.1
		c5.2-1.9,9.4,0.2,9.4,4.6v323.1C569.9,597,565.7,602.2,560.5,604.2L560.5,604.2z M560.5,604.2"/>
	<path class="st1" d="M555,581l-175.4,65.6c-4.4,1.7-8-0.1-8-3.9V367.8c0-3.8,3.6-8.2,8-9.8L555,292.3c4.4-1.7,8,0.1,8,3.9v274.9
		C563,574.9,559.4,579.3,555,581L555,581z M555,581"/>
	<path class="st2" d="M579.3,604.2l206.2,77.1c5.2,1.9,9.4-0.2,9.4-4.6V337.5c0-4.5-4.2-9.7-9.4-11.6l-206.2-61.1
		c-5.2-1.9-9.4,0.2-9.4,4.6v323.1C569.9,597,574.1,602.2,579.3,604.2L579.3,604.2z M579.3,604.2"/>
	<path class="st1" d="M582.6,576.8l199.3,74.6c5,1.8,9.1-0.1,9.1-4.4V334.6c0-4.3-4.1-9.4-9.1-11.2l-199.3-74.6
		c-5-1.8-9.1,0.1-9.1,4.4v312.4C573.5,569.9,577.6,575,582.6,576.8L582.6,576.8z M582.6,576.8"/>
	<path class="st0" d="M1010.5,604.2l-206.2,77.1c-5.2,1.9-9.4-0.2-9.4-4.6V337.5c0-4.5,4.2-9.7,9.4-11.6l206.2-77.1
		c5.2-1.9,9.4,0.2,9.4,4.6v339.1C1019.8,597,1015.6,602.2,1010.5,604.2L1010.5,604.2z M1010.5,604.2"/>
	<path class="st1" d="M983.6,581.7l-175.4,66.5c-4.4,1.7-8-0.1-8-3.9V365.5c0-3.8,3.6-8.3,8-10L983.5,289c4.4-1.7,8,0.1,8,3.9v278.6
		C991.6,575.4,988,580,983.6,581.7L983.6,581.7z M983.6,581.7"/>
	<g>
		<defs>
			<rect id="SVGID_1_" x="337" y="78" width="691.9" height="613"/>
		</defs>
		<clipPath id="SVGID_2_">
			<use xlink:href="#SVGID_1_"  style="overflow:visible;"/>
		</clipPath>
		<path class="st3" d="M770.6,550.6c-17,0-36-4.1-58.3-14.1c-23-10.3-35.7-27.9-49.1-46.5c-23.1-31.9-49.3-68.2-142.9-78.6
			c-38-4.2-74.4,5.9-108.4,30.1c-25.9,18.5-40.6,38.6-40.7,38.9c-4.2,5.8-12.1,7-17.8,3c-5.8-4.1-7-12.1-3-17.8
			c0.6-1,16.8-23.3,45.9-44.2c38.9-28,82.8-40.2,126.9-35.3c104.9,11.7,135.8,54.6,160.8,89c12.3,17,22.1,30.6,38.9,38.1
			c54.6,24.6,82.1,6.9,120-17.5c6.2-4,12.7-8.2,19.5-12.3c20-12.1,36.6-40,54.2-69.6c22-37,44.8-75.4,80.4-96.2
			c6.1-3.6,13.9-1.5,17.5,4.6c3.6,6.1,1.5,13.9-4.6,17.5c-29.9,17.4-51,52.9-71.3,87.1c-19.3,32.4-37.4,63-63,78.4
			c-6.5,3.9-12.8,8-18.9,11.9C830.2,534.2,804.7,550.6,770.6,550.6L770.6,550.6z M770.6,550.6"/>
		<path class="st4" d="M350.6,690c-3,0-5.8-0.8-8.2-2.5c-3.5-2.4-5.5-6.4-5.5-10.9V353.5c0-7.8,6.3-16,14.6-19.1l206.2-77.1
			c5.4-2,10.7-1.5,14.7,1.2c3.5,2.4,5.5,6.4,5.5,10.9v323.1c0,7.8-6.3,16-14.6,19.1l-206.2,77.1C354.9,689.5,352.6,690,350.6,690
			L350.6,690z M561.9,272.8l-204.8,76.6c-2.4,0.9-4.1,3.3-4.2,4.2v319.6l204.8-76.6c2.4-0.9,4.1-3.3,4.2-4.2V272.8z M561.9,272.8"/>
	</g>
	<path class="st5" d="M789.2,690c-2.1,0-4.3-0.4-6.6-1.2l-206.2-77.1c-8.3-3.1-14.6-11.4-14.6-19.1V269.4c0-4.5,2-8.4,5.5-10.9
		c3.9-2.7,9.1-3.2,14.4-1.3L788,318.3l0.2,0.1c8.3,3.1,14.6,11.4,14.6,19.1v339.1c0,4.5-2,8.4-5.5,10.9
		C795,689.1,792.2,690,789.2,690L789.2,690z M577.9,272.7v319.8c0.1,0.9,1.8,3.2,4.2,4.1L787,673.1V337.5c-0.1-0.9-1.8-3.1-4-4
		L577.9,272.7z M577.9,272.7"/>
	<path class="st5" d="M800.6,690c-3,0-5.8-0.8-8.2-2.5c-3.5-2.4-5.5-6.4-5.5-10.9V337.5c0-7.8,6.2-16,14.6-19.1l206.2-77.1
		c5.4-2,10.7-1.5,14.7,1.2c3.5,2.4,5.5,6.4,5.5,10.9v339.1c0,7.8-6.3,16-14.6,19.1l-206.2,77.1C804.9,689.5,802.6,690,800.6,690
		L800.6,690z M1011.8,256.8L807,333.4c-2.4,0.9-4.1,3.3-4.2,4.2v335.6l204.8-76.6c2.4-0.9,4.1-3.3,4.2-4.2V256.8z M1011.8,256.8"/>
	<path class="st0" d="M505.4,263.6c0,97.8,79.3,177.1,177.1,177.1c97.8,0,177.1-79.3,177.1-177.1S780.4,86.5,682.6,86.5
		C584.7,86.5,505.4,165.8,505.4,263.6L505.4,263.6z M505.4,263.6"/>
	<path class="st2" d="M682.6,440.7c97.8,0,177.1-79.3,177.1-177.1H505.4C505.4,361.4,584.7,440.7,682.6,440.7L682.6,440.7z
		 M682.6,440.7"/>
	<path class="st5" d="M682.6,448.7c-49.4,0-95.9-19.3-130.9-54.2c-35-35-54.2-81.4-54.2-130.9c0-49.4,19.3-95.9,54.2-130.9
		c35-35,81.4-54.2,130.9-54.2c49.4,0,95.9,19.3,130.9,54.2c35,35,54.2,81.4,54.2,130.9c0,49.4-19.3,95.9-54.2,130.9
		C778.5,429.4,732,448.7,682.6,448.7L682.6,448.7z M682.6,94.5c-93.3,0-169.1,75.8-169.1,169.1c0,93.3,75.8,169.1,169.1,169.1
		c93.3,0,169.1-75.8,169.1-169.1C851.7,170.3,775.8,94.5,682.6,94.5L682.6,94.5z M682.6,94.5"/>
	<path class="st6" d="M547.4,263.6c0,74.7,60.5,135.2,135.2,135.2s135.2-60.5,135.2-135.2c0-74.7-60.5-135.2-135.2-135.2
		S547.4,188.9,547.4,263.6L547.4,263.6z M547.4,263.6"/>
	<path class="st7" d="M682.6,406.8c-79,0-143.2-64.2-143.2-143.2c0-79,64.2-143.2,143.2-143.2s143.2,64.2,143.2,143.2
		C825.8,342.6,761.5,406.8,682.6,406.8L682.6,406.8z M682.6,136.4c-70.2,0-127.2,57-127.2,127.2s57,127.2,127.2,127.2
		s127.2-57,127.2-127.2S752.7,136.4,682.6,136.4L682.6,136.4z M682.6,136.4"/>
	<path class="st8" d="M574.6,261c0,59.6,48.4,108,108,108c59.6,0,108-48.4,108-108c0-59.6-48.4-108-108-108
		C622.9,153,574.6,201.3,574.6,261L574.6,261z M574.6,261"/>
	<path class="st0" d="M565,381.4l86.9-147.8l61,61L565,381.4z M565,381.4"/>
	<path class="st2" d="M565,381.4l117.4-117.4l30.5,30.5L565,381.4z M565,381.4"/>
	<path class="st9" d="M800.2,146.2l-147.8,86.9l61,61L800.2,146.2z M800.2,146.2"/>
	<path class="st10" d="M800.2,146.2L682.8,263.6l30.5,30.5L800.2,146.2z M800.2,146.2"/>
	<path class="st5" d="M565,389.4c-2.1,0-4.1-0.8-5.7-2.3c-2.6-2.6-3.1-6.6-1.3-9.7l87-147.9c1.3-2.2,3.4-3.6,5.9-3.9
		c2.5-0.3,4.9,0.6,6.6,2.2l61,61c1.8,1.8,2.6,4.2,2.2,6.6c-0.3,2.5-1.8,4.6-3.9,5.9l-147.9,87C567.8,389.1,566.3,389.4,565,389.4
		L565,389.4z M653.4,246.6L587.4,359l112.5-66.1L653.4,246.6z M653.4,246.6"/>
	<path class="st5" d="M713.3,302.1c-2.1,0-4.2-0.8-5.7-2.3l-61-61c-1.8-1.8-2.6-4.2-2.2-6.6c0.3-2.5,1.8-4.6,3.9-5.9l147.9-86.9
		c3.1-1.8,7.1-1.4,9.7,1.3c2.6,2.6,3.1,6.6,1.3,9.7l-87,147.9c-1.3,2.2-3.4,3.6-5.9,3.9H713.3z M665.3,234.7l46.4,46.4l66.1-112.4
		L665.3,234.7z M665.3,234.7"/>
	<path class="st0" d="M653,264.2c0,10.5,5.6,20.3,14.8,25.6c9.1,5.3,20.4,5.3,29.5,0c9.1-5.3,14.8-15,14.8-25.6
		c0-16.3-13.2-29.5-29.5-29.5C666.3,234.6,653,247.9,653,264.2L653,264.2z M653,264.2"/>
	<path class="st5" d="M682.6,301.8c-20.7,0-37.5-16.9-37.5-37.5c0-20.6,16.9-37.5,37.5-37.5c20.6,0,37.5,16.9,37.5,37.5
		C720.1,284.9,703.3,301.8,682.6,301.8L682.6,301.8z M682.6,242.6c-11.9,0-21.5,9.7-21.5,21.5c0,11.8,9.7,21.5,21.5,21.5
		c11.9,0,21.5-9.7,21.5-21.5C704.1,252.3,694.5,242.6,682.6,242.6L682.6,242.6z M682.6,242.6"/>
</g>
</svg>
