<?xml version="1.0" encoding="utf-8"?>
<!-- Generator: Adobe Illustrator 23.0.1, SVG Export Plug-In . SVG Version: 6.00 Build 0)  -->
<svg version="1.1" id="Layer_1" xmlns="http://www.w3.org/2000/svg" xmlns:xlink="http://www.w3.org/1999/xlink" x="0px" y="0px"
	 viewBox="0 0 1366 768" style="enable-background:new 0 0 1366 768;" xml:space="preserve">
<style type="text/css">
	.st0{fill:#FFFFFF;}
	.st1{clip-path:url(#SVGID_2_);fill:#B9D5EA;}
	.st2{clip-path:url(#SVGID_2_);fill:#322E63;}
	.st3{fill:#EA4468;}
	.st4{fill:#FF525F;}
	.st5{clip-path:url(#SVGID_4_);fill:#EA4468;}
	.st6{clip-path:url(#SVGID_4_);fill:#322E63;}
	.st7{fill:#322E63;}
	.st8{fill:#1F4287;}
</style>
<path class="st0" d="M408,678.5V141.1c0-21.1,17.3-38.4,38.4-38.4h473.1c21.1,0,38.4,17.3,38.4,38.4v537.4
	c0,21.1-17.3,38.4-38.4,38.4H446.4C425.3,716.9,408,699.6,408,678.5L408,678.5z M408,678.5"/>
<g>
	<defs>
		<rect id="SVGID_1_" x="400" y="44" width="565.9" height="681.8"/>
	</defs>
	<clipPath id="SVGID_2_">
		<use xlink:href="#SVGID_1_"  style="overflow:visible;"/>
	</clipPath>
	<path class="st1" d="M408,287.9V141.2c0-21.1,17.3-38.4,38.4-38.4h473.1c21.1,0,38.4,17.3,38.4,38.4v146.7H408z M828.4,715.3
		l127.5-115.8l-1-54.2L767.4,716.9L828.4,715.3z M828.4,715.3"/>
	<path class="st2" d="M919.5,724.9H446.4c-25.6,0-46.4-20.8-46.4-46.4V128.2c0-25.6,20.8-46.4,46.4-46.4h473.1
		c25.6,0,46.4,20.8,46.4,46.4v550.3C965.9,704.1,945.1,724.9,919.5,724.9L919.5,724.9z M446.4,97.8c-16.8,0-30.4,13.6-30.4,30.4
		v550.3c0,16.8,13.6,30.4,30.4,30.4h473.1c16.8,0,30.4-13.6,30.4-30.4V128.2c0-16.8-13.6-30.4-30.4-30.4H446.4z M446.4,97.8"/>
</g>
<path class="st3" d="M408,239.3v-111c0-21.1,17.3-38.4,38.4-38.4h473.1c21.1,0,38.4,17.3,38.4,38.4v111H408z M408,239.3"/>
<path class="st4" d="M408,239.3v-111c0-21.1,17.3-38.4,38.4-38.4h473.1c21.1,0,38.4,17.3,38.4,38.4v111H408z M408,239.3"/>
<path class="st3" d="M408,239.3v-81.4c0-21.1,17.3-38.4,38.4-38.4h473.1c21.1,0,38.4,17.3,38.4,38.4v81.4H408z M408,239.3"/>
<g>
	<defs>
		<rect id="SVGID_3_" x="400" y="44" width="565.9" height="681.8"/>
	</defs>
	<clipPath id="SVGID_4_">
		<use xlink:href="#SVGID_3_"  style="overflow:visible;"/>
	</clipPath>
	<path class="st5" d="M495.9,89.8h36.8v82.6h-36.8V89.8z M608.6,89.8h36.8v82.6h-36.8V89.8z M721.6,89.8h36.8v82.6h-36.8V89.8z
		 M833.8,89.8h36.8v82.6h-36.8V89.8z M833.8,89.8"/>
	<path class="st6" d="M965.9,247.3H400v-119c0-25.6,20.8-46.4,46.4-46.4h473.1c25.6,0,46.4,20.8,46.4,46.4V247.3z M416,231.3h533.9
		v-103c0-16.8-13.6-30.4-30.4-30.4H446.4c-16.8,0-30.4,13.6-30.4,30.4V231.3z M416,231.3"/>
</g>
<path class="st7" d="M514.5,160.7c-4.4,0-8-3.6-8-8V52.8c0-4.4,3.6-8,8-8c4.4,0,8,3.6,8,8v99.9C522.5,157.1,518.9,160.7,514.5,160.7
	L514.5,160.7z M627,160.7c-4.4,0-8-3.6-8-8V52.8c0-4.4,3.6-8,8-8c4.4,0,8,3.6,8,8v99.9C635,157.1,631.4,160.7,627,160.7L627,160.7z
	 M739.7,160.7c-4.4,0-8-3.6-8-8V52.8c0-4.4,3.6-8,8-8c4.4,0,8,3.6,8,8v99.9C747.7,157.1,744.1,160.7,739.7,160.7L739.7,160.7z
	 M852.2,160.7c-4.4,0-8-3.6-8-8V52.8c0-4.4,3.6-8,8-8c4.4,0,8,3.6,8,8v99.9C860.2,157.1,856.6,160.7,852.2,160.7L852.2,160.7z
	 M852.2,160.7"/>
<path class="st7" d="M651,357.4c4.9,0,8.9,1.5,12,4.6c3.1,3.1,4.6,7.1,4.6,12v49.8c0,6-1.8,12.8-5.5,20.6l-62,129.1h67.8v18.4h-93
	v-11.1l71.8-149v-55.9h-47.8v52.7h-21v-54.6c0-4.9,1.5-8.9,4.6-12c3.1-3.1,7.1-4.6,12-4.6L651,357.4 M651,352.6h-56.5
	c-6.2,0-11.4,2-15.4,6.1c-4,4-6.1,9.2-6.1,15.4v54.6c0,2.6,2.2,4.8,4.8,4.8h21c2.6,0,4.8-2.2,4.8-4.8v-47.9h38.2v50l-71.2,148
	c-0.3,0.6-0.5,1.4-0.5,2.1v11.1c0,2.6,2.2,4.8,4.8,4.8h93c2.6,0,4.8-2.2,4.8-4.8v-18.4c0-2.6-2.2-4.8-4.8-4.8h-60.2l58.7-122.3
	c4-8.3,6-15.9,6-22.6v-49.8c0-6.2-2-11.4-6.1-15.4C662.4,354.6,657.2,352.6,651,352.6L651,352.6z M764.6,357.4v0.9L710.6,513h43.8
	v-85.1H774V513h17.8v17.7H774v61.1h-19.6v-61.1h-66.2v-10.6L745,357.4H764.6 M764.6,352.6H745c-2.1,0-3.8,1.3-4.6,3.2l-56.8,162.7
	c-0.2,0.5-0.2,1-0.2,1.6v10.6c0,2.6,2.2,4.8,4.8,4.8h61.4v56.3c0,2.6,2.2,4.8,4.8,4.8H774c2.6,0,4.8-2.2,4.8-4.8v-56.3h13
	c2.6,0,4.8-2.2,4.8-4.8V513c0-2.6-2.2-4.8-4.8-4.8h-13v-80.3c0-2.6-2.2-4.8-4.8-4.8h-19.6c-2.6,0-4.8,2.2-4.8,4.8v80.3h-32.2
	l51.7-148.4c0.2-0.5,0.2-1,0.2-1.6v-0.9C769.4,354.7,767.2,352.6,764.6,352.6L764.6,352.6z M764.6,352.6"/>
<path class="st8" d="M667.9,591.8h-93v-11.1l71.8-149v-55.9h-47.8v52.7h-21v-54.6c0-4.9,1.5-8.9,4.6-12c3.1-3.1,7.1-4.6,12-4.6H651
	c4.9,0,8.9,1.5,12,4.6c3.1,3.1,4.6,7.1,4.6,12v49.8c0,6-1.8,12.8-5.5,20.6l-62,129.1H668L667.9,591.8z M791.8,530.7H774v61.1h-19.6
	v-61.1h-66.2v-10.6L745,357.4h19.6v0.9L710.6,513h43.8v-85.1H774V513h17.8V530.7z M791.8,530.7"/>
</svg>
