<svg xmlns="http://www.w3.org/2000/svg" xmlns:xlink="http://www.w3.org/1999/xlink" viewBox="0 0 239.42 296.88"><defs><style>.cls-1{fill:url(#linear-gradient);}.cls-2{fill:url(#linear-gradient-2);}</style><linearGradient id="linear-gradient" x1="-57.02" y1="145.62" x2="231.86" y2="238.97" gradientUnits="userSpaceOnUse"><stop offset="0" stop-color="#21e6c1"/><stop offset="1" stop-color="#21b2c1"/></linearGradient><linearGradient id="linear-gradient-2" x1="281.85" y1="154.23" x2="54.62" y2="-11.34" xlink:href="#linear-gradient"/></defs><title>main logo</title><g id="Layer_2" data-name="Layer 2"><g id="Layer_1-2" data-name="Layer 1"><path class="cls-1" d="M180.37,239.74c0,31.74-23.8,57.14-74.61,57.14-33.85,0-69.17-13.4-90.1-26.49a1,1,0,0,1-.22-.16,15.78,15.78,0,0,0-1.76-1.12h0A26.63,26.63,0,0,1,0,245.88L0,57.69l.1-.07c0,.9,0,1.8,0,2.72,0,46,39.82,84.15,108.87,108.75C160.54,188.13,180.37,206.4,180.37,239.74Z"/><path class="cls-2" d="M238.34,207.78c-9.28-41.65-35.54-69.05-91.31-90.29-50-19-73-33.34-73-65.08C74,23.84,97,0,138.3,0a149.26,149.26,0,0,1,78.58,22.24l.16-.48,13.43,11.91a26.65,26.65,0,0,1,8.95,20.1Z"/></g></g></svg>