<svg xmlns="http://www.w3.org/2000/svg" xmlns:xlink="http://www.w3.org/1999/xlink" viewBox="0 0 2193.98 661.31"><defs><style>.cls-1{font-size:399.96px;fill:#21e6c1;font-family:KeepCalm-Medium, Keep Calm;font-weight:500;}.cls-2{fill:#071e3d;}.cls-3{fill:url(#linear-gradient);}.cls-4{fill:url(#linear-gradient-2);}</style><linearGradient id="linear-gradient" x1="-127.01" y1="324.36" x2="516.46" y2="532.31" gradientUnits="userSpaceOnUse"><stop offset="0" stop-color="#21e6c1"/><stop offset="1" stop-color="#21b2c1"/></linearGradient><linearGradient id="linear-gradient-2" x1="627.82" y1="343.56" x2="121.67" y2="-25.27" xlink:href="#linear-gradient"/></defs><title>soutnik logo</title><g id="Layer_2" data-name="Layer 2"><g id="Layer_1-2" data-name="Layer 1"><g id="soutnik_logo" data-name="soutnik logo"><text class="cls-1" transform="translate(652.15 538.12)">S<tspan class="cls-2" x="257.57" y="0">putnik</tspan></text><path class="cls-3" d="M401.78,534c0,70.7-53,127.28-166.2,127.28-75.4,0-154.08-29.86-200.69-59a2,2,0,0,1-.5-.35,34.46,34.46,0,0,0-3.92-2.5h0A59.26,59.26,0,0,1,.1,547.7L0,128.5l.21-.14c-.07,2-.07,4-.07,6C.14,237,88.84,321.85,242.63,376.66,357.59,419.06,401.78,459.76,401.78,534Z"/><path class="cls-4" d="M530.91,462.84C510.24,370,451.74,309,327.52,261.7c-111.4-42.41-162.64-74.26-162.64-145C164.88,53.1,216.12,0,308.06,0c79.61,0,141.47,28.29,175,49.53l.35-1.07L513.36,75a59.31,59.31,0,0,1,19.94,44.75Z"/></g></g></g></svg>