<svg xmlns="http://www.w3.org/2000/svg" xmlns:xlink="http://www.w3.org/1999/xlink" viewBox="0 0 2485.07 729.49"><defs><style>.cls-1{font-size:300.43px;fill:#21e6c1;font-family:KeepCalm-Medium, Keep Calm;font-weight:500;}.cls-2{letter-spacing:-0.07em;}.cls-3{fill:#071e3d;}.cls-4{fill:url(#linear-gradient);}.cls-5{fill:url(#linear-gradient-2);}</style><linearGradient id="linear-gradient" x1="1175.6" y1="-43.45" x2="1215.84" y2="284.83" gradientUnits="userSpaceOnUse"><stop offset="0" stop-color="#21e6c1"/><stop offset="1" stop-color="#21a9c1"/></linearGradient><linearGradient id="linear-gradient-2" x1="1175.74" y1="-43.47" x2="1215.98" y2="284.81" xlink:href="#linear-gradient"/></defs><title>travel assistant 1</title><g id="Layer_2" data-name="Layer 2"><g id="Layer_1-2" data-name="Layer 1"><g id="travel_assistant_1" data-name="travel assistant 1"><text class="cls-1" transform="translate(0 636.96)"><tspan class="cls-2">T</tspan><tspan class="cls-3" x="173.34" y="0">ravel</tspan><tspan x="967.65" y="0" xml:space="preserve"> A</tspan><tspan class="cls-3" x="1328.76" y="0">ssistant</tspan></text><path class="cls-4" d="M1197.83,45.92a92,92,0,0,1,91.84,91.85c0,39.28-24.12,69.55-74.29,128.9q-8.37,9.9-17.61,20.91c-5.92-7.06-11.61-13.8-17-20.17-40-47.3-66.46-78.54-73.06-111.69A92.55,92.55,0,0,1,1193.62,46c1.4-.07,2.81-.1,4.21-.1h0m0-45.92c-2.06,0-4.14.05-6.22.14C1108,3.82,1046.32,82.6,1062.67,164.69c11.59,58.17,60.6,102.8,124.54,182.35a13.6,13.6,0,0,0,21.2,0c73.19-91.33,127.18-136.63,127.18-209.25A137.77,137.77,0,0,0,1197.82,0Z"/><path class="cls-5" d="M1197.82,111.13a25.54,25.54,0,1,1-25.53,25.54,25.57,25.57,0,0,1,25.53-25.54m0-36.74a62.28,62.28,0,1,0,62.27,62.28,62.27,62.27,0,0,0-62.27-62.28Z"/></g></g></g></svg>