<svg width="44" height="44" viewBox="0 0 44 44" fill="none" xmlns="http://www.w3.org/2000/svg">
<path fill-rule="evenodd" clip-rule="evenodd" d="M11.6772 32.2631L32.263 11.6773C26.576 6.02254 17.3817 6.03249 11.707 11.7072C6.03237 17.3818 6.02242 26.5761 11.6772 32.2631ZM32.293 32.2931C26.8359 37.7502 18.1239 37.9686 12.4062 32.9484L32.9482 12.4063C37.9685 18.124 37.7501 26.836 32.293 32.2931ZM33.0001 33.0002C26.9249 39.0754 17.0751 39.0754 10.9999 33.0002C4.92477 26.925 4.92477 17.0752 10.9999 11.0001C17.0751 4.9249 26.9249 4.9249 33.0001 11.0001C39.0752 17.0752 39.0752 26.925 33.0001 33.0002Z" fill="#FC2442"/>
</svg>
