<svg xmlns="http://www.w3.org/2000/svg" viewBox="0 0 266.51 200.08"><defs><style>.cls-1{fill:#21e6c1;}.cls-2{fill:#322e63;}.cls-3{fill:#f9f9f9;}.cls-4{fill:#1f4287;}.cls-5{fill:#265bb2;}.cls-6{fill:#fff;}.cls-7{fill:#fcef00;}.cls-8{fill:#efdd03;}</style></defs><title>icon mounten</title><g id="Layer_2" data-name="Layer 2"><g id="Layer_1-2" data-name="Layer 1"><g id="icon_mounten" data-name="icon mounten"><path class="cls-1" d="M100.6,64.44a15,15,0,0,0-4.72.75,20.92,20.92,0,0,0-40.6-5.27,17.7,17.7,0,1,0-4.8,34.74H100.6a15.11,15.11,0,1,0,0-30.22Z"/><path class="cls-1" d="M223.78,74.11a13.06,13.06,0,0,0-4.08.66,18.13,18.13,0,0,0-35.19-4.57,15.09,15.09,0,0,0-4.16-.58,15.35,15.35,0,1,0,0,30.69h43.43a13.1,13.1,0,0,0,0-26.2Z"/><path class="cls-2" d="M252,195.57H70.15L137.87,71.9l.06-.12,16.63-30.35a7.42,7.42,0,0,1,13,0l24.5,44.74.15.27Z"/><path class="cls-2" d="M259.58,200.07h-197l88.06-160.8a11.89,11.89,0,0,1,10.43-6.19h0a11.93,11.93,0,0,1,10.46,6.19Zm-181.83-9H244.39L163.63,43.59a2.89,2.89,0,0,0-2.57-1.51h0a2.86,2.86,0,0,0-2.55,1.51L141.82,74.06Z"/><path class="cls-3" d="M192.07,86.17c-8.87-.17-9.48-13-17.06-13s-11,13.6-20.92,13c-9.32-.54-15.47-13-16.16-14.42l16.63-30.43c2.46-4.51,8-4.78,11.59-1.58a9,9,0,0,1,1.93,2.52Z"/><path class="cls-4" d="M19.37,196.58,84.66,85a7.9,7.9,0,0,1,13.6,0l65.3,111.6Z"/><path class="cls-2" d="M91.46,83.59a5.34,5.34,0,0,1,4.66,2.65l13,22.23,50.1,85.63H23.7l50.54-86.39L86.8,86.24a5.35,5.35,0,0,1,4.66-2.65m0-5a10.24,10.24,0,0,0-8.94,5.11L70,105.2,19.41,191.59,15,199.07H167.89l-4.37-7.48L113.42,106l-13-22.23a10.27,10.27,0,0,0-9-5.11Z"/><path class="cls-3" d="M90.36,123.6l-.73,0c-11.24-.64-17.39-13.74-17.64-14.3l-.23-.49V107l12.9-22.12a7.57,7.57,0,0,1,6.67-3.68,8,8,0,0,1,6.92,3.66L113,110.06l-3.24.78c-2,.5-4,2.67-6.13,5C100.41,119.28,96.44,123.6,90.36,123.6Z"/><path class="cls-2" d="M91.33,83.68a5.6,5.6,0,0,1,4.79,2.45l13,22.3c-6.44,1.57-10,12.69-18.77,12.69l-.59,0c-9.88-.56-15.53-12.86-15.53-12.86v-.57L86.8,86.13a5.11,5.11,0,0,1,4.53-2.45m0-5h0a10.06,10.06,0,0,0-8.82,4.92L70,105.17l-.68,1.16v3l.46,1c.28.61,7,15,19.76,15.74l.87,0c7.17,0,11.73-5,15.06-8.61,1.68-1.83,3.58-3.9,4.89-4.22l6.47-1.58-3.36-5.75-13-22.3v0a10.51,10.51,0,0,0-9.06-4.87Z"/><path class="cls-5" d="M115.73,196.56,147,143.9a5,5,0,0,1,8.54,0l31.3,52.66Z"/><path class="cls-2" d="M151.29,144a2.47,2.47,0,0,1,2.15,1.2l6,10.09,23.1,38.85H120.06l23.29-39.2,5.79-9.74a2.49,2.49,0,0,1,2.15-1.2m0-4.93a7.35,7.35,0,0,0-6.38,3.61l-5.79,9.75-23.3,39.19L111.4,199h79.79l-4.43-7.45-23.09-38.85-6-10.09a7.35,7.35,0,0,0-6.38-3.61Z"/><path class="cls-3" d="M140.57,154.11l6.49-10.31a5,5,0,0,1,8.5,0l7.7,13-3.25.78a9.63,9.63,0,0,1-2.19.26,14.85,14.85,0,0,1-3.7-.58,20.43,20.43,0,0,0-3.92-.66l-1.19,0a15,15,0,0,0-5,.74l-3.38,1.34Z"/><path class="cls-2" d="M151.29,143.91a2.47,2.47,0,0,1,2.15,1.2l6,10.12a6.65,6.65,0,0,1-1.61.19c-2.2,0-4-1-7.48-1.23-.46,0-.9,0-1.33,0a16.82,16.82,0,0,0-6,.93v-.26l6.11-9.71a2.49,2.49,0,0,1,2.15-1.2m0-4.93a7.33,7.33,0,0,0-6.34,3.55l-6.09,9.66-.76,1.2v9.34l6.78-3.08a13.29,13.29,0,0,1,4.13-.57q.53,0,1.05,0a18.1,18.1,0,0,1,3.48.6,17.47,17.47,0,0,0,4.28.64,11.77,11.77,0,0,0,2.76-.33l6.5-1.55-3.41-5.75-6-10.12a7.36,7.36,0,0,0-6.39-3.62Z"/><line class="cls-6" x1="4.5" y1="195.58" x2="262.01" y2="195.58"/><path class="cls-2" d="M262,200.08H4.5a4.5,4.5,0,0,1,0-9H262a4.5,4.5,0,0,1,0,9Z"/><circle class="cls-7" cx="117.44" cy="23.34" r="19.34"/><path class="cls-8" d="M117.44,46.68a23.34,23.34,0,1,1,23.34-23.34A23.37,23.37,0,0,1,117.44,46.68Zm0-38.68a15.34,15.34,0,1,0,15.34,15.34A15.36,15.36,0,0,0,117.44,8Z"/></g></g></g></svg>