<svg xmlns="http://www.w3.org/2000/svg" viewBox="0 0 420.77 319.27"><defs><style>.cls-1{fill:#21b2c1;}.cls-2{fill:#322e63;}.cls-3{fill:#21e6c1;}.cls-4{fill:#ff525f;}.cls-5{fill:#1f4287;}.cls-6{fill:#fff;}</style></defs><title>icon discount location</title><g id="Layer_2" data-name="Layer 2"><g id="Layer_1-2" data-name="Layer 1"><g id="icon_discount_location" data-name="icon discount location"><ellipse class="cls-1" cx="344.43" cy="203.3" rx="56.71" ry="16.13"/><path class="cls-2" d="M344.43,222.68c-29.8,0-60-6.66-60-19.38s30.17-19.39,60-19.39,60,6.66,60,19.39S374.23,222.68,344.43,222.68Zm0-32.25c-34.59,0-53.46,8.5-53.46,12.87s18.87,12.86,53.46,12.86,53.45-8.5,53.45-12.86S379,190.43,344.43,190.43Z"/><path class="cls-3" d="M344.45,0c-1.15,0-2.31,0-3.46.08a75.53,75.53,0,0,0-50.31,22.17,76.37,76.37,0,0,0-21.15,69c6.42,32.22,33.57,57,69,101a7.52,7.52,0,0,0,10.57,1.16,6.2,6.2,0,0,0,.6-.55l.6-.59c40.54-50.62,70.46-75.72,70.46-116A76.33,76.33,0,0,0,344.45,0Zm9.6,147.64c-3.09,3.67-6.33,7.51-9.76,11.6-3.27-3.92-6.43-7.65-9.43-11.18-22.19-26.23-36.81-43.53-40.46-61.89a50.89,50.89,0,1,1,100.81-9.94C395.22,98,381.86,114.76,354.05,147.64Z"/><path class="cls-4" d="M344.37,41.08a34.51,34.51,0,1,0,24.38,10.07A34.39,34.39,0,0,0,344.37,41.08Zm10,44.57a14.16,14.16,0,1,1,0-20A14.16,14.16,0,0,1,354.34,85.65Z"/><circle class="cls-1" cx="218.18" cy="293.81" r="2.64"/><path class="cls-1" d="M221.24,288.39c-5.67-5-20-9.4-39.75-12.45q-5-.79-10.5-1.45a8.51,8.51,0,0,1-8.31,6.83,8.43,8.43,0,0,1-7.32-4.24,7.24,7.24,0,0,1-.38-.73,8.46,8.46,0,0,1-.77-3.52c-3.44-.27-7-.5-10.58-.71-9.42-.52-19.34-.8-29.59-.8-6,0-11.86.09-17.58.28q-5.38.18-10.58.45a6.79,6.79,0,0,1,0,.78,8.48,8.48,0,0,1-.73,3.41.54.54,0,0,1,0,.11,8.44,8.44,0,0,1-14.9.93,6.56,6.56,0,0,1-.51-.94,8.14,8.14,0,0,1-.77-3.1c-3.62.32-7.14.69-10.54,1.09-1,.11-2,.23-2.94.36-30.83,3.88-51.32,10.72-51.32,18.52C4.16,305.3,53.35,315.1,114,315.1c49.6,0,91.53-6.55,105.18-15.55,3.05-2,4.69-4.14,4.69-6.34C223.91,291.55,223,289.94,221.24,288.39Zm-4,7.48a5.1,5.1,0,0,1,1-3.35l.57-.77c.71.67,1,1.18,1,1.46S219.14,294.6,217.25,295.87Z"/><path class="cls-2" d="M155,276.35H144.89c3.56.2,7.06.45,10.47.73A7.24,7.24,0,0,1,155,276.35Zm0,0a8.46,8.46,0,0,1-.77-3.52,8.27,8.27,0,0,1,.79-3.54c.09-.18.18-.37.28-.55-3.6-.29-7.28-.55-11-.75-9.71-.56-19.86-.83-30.21-.83-6.2,0-12.32.1-18.31.29q-5.78.19-11.38.51a8.33,8.33,0,0,1,1.53,4.09,6.79,6.79,0,0,1,0,.78,8.48,8.48,0,0,1-.73,3.41q5.46-.3,11.09-.48c5.81-.19,11.75-.29,17.76-.29,10.26,0,20.3.28,29.9.83l.95.05c3.56.2,7.06.45,10.47.73A7.24,7.24,0,0,1,155,276.35Zm68.71,8.7c-5.36-4.55-15.68-8.31-31.15-11.39-3.43-.69-7-1.32-10.82-1.91-3.52-.54-7.18-1-10.95-1.48a8.57,8.57,0,0,1,.39,2.56,8.27,8.27,0,0,1-.17,1.66,8.52,8.52,0,0,1-2,3.95q5.88.68,11.33,1.51c3.68.57,7.22,1.19,10.56,1.86,18.37,3.66,25.52,7.71,27.86,9.94.71.67,1,1.18,1,1.46s-.62,1.39-2.51,2.66c-3.39,2.32-10.92,5.67-26.33,8.75C170.43,308.7,143.12,311,114,311s-56.39-2.25-76.89-6.33c-23.94-4.78-28.83-10.21-28.83-11.41s4.89-6.63,28.83-11.4c6.69-1.33,14.1-2.47,22.06-3.4q5.35-.63,11-1.13a6.56,6.56,0,0,1-.51-.94,8.14,8.14,0,0,1-.77-3.1c0-.14,0-.28,0-.41a8.15,8.15,0,0,1,.8-3.56,1.59,1.59,0,0,1,.15-.29l-2.47.22c-3,.27-6,.59-8.87.92q-5.84.66-11.25,1.49-6.2.93-11.78,2.05C11.62,278.42,0,284.82,0,293.21S11.62,308,35.53,312.77c21,4.19,48.89,6.5,78.51,6.5s57.49-2.31,78.5-6.5c17.94-3.58,29-8.07,33.35-13.64v0a9.41,9.41,0,0,0,2.17-5.9C228.07,290.24,226.62,287.53,223.69,285.05Z"/><path class="cls-2" d="M336.07,223.22l-34.25,61.16a5.08,5.08,0,0,1-8,1.12l-33.73-33-33.71,46.06a4.16,4.16,0,0,1-.51.59v0a5.1,5.1,0,0,1-3.59,1.47,5,5,0,0,1-3-1l-.09-.07a5.06,5.06,0,0,1-2-3.68c1.89-1.27,2.51-2.24,2.51-2.66s-.27-.79-1-1.46l2.46-3.36,2.45-3.34,31.7-43.31a5.08,5.08,0,0,1,7.65-.63l33.21,32.53,31-55.44a5.43,5.43,0,0,1,6.93-1.91A5,5,0,0,1,336.07,223.22Z"/><path class="cls-1" d="M170.49,171.56a55.1,55.1,0,0,1-10.23,32.06c-.35.49-.7,1-1.06,1.44a55.28,55.28,0,0,1-88.06,0c-.37-.47-.73-.94-1.06-1.43a55.31,55.31,0,0,1,0-64.12c.35-.49.7-1,1.07-1.44a55.3,55.3,0,0,1,88.07,0c.36.47.71,1,1.06,1.44A55.09,55.09,0,0,1,170.49,171.56Z"/><path class="cls-5" d="M115.16,228.63a56.93,56.93,0,0,1-45.4-22.52c-.38-.48-.75-1-1.11-1.49a57.05,57.05,0,0,1,0-66.12c.36-.5.72-1,1.1-1.5a57,57,0,0,1,33.65-21.28,57.82,57.82,0,0,1,23.51,0A57,57,0,0,1,160.57,137c.37.47.73,1,1.09,1.48a57,57,0,0,1,0,66.13c-.36.5-.72,1-1.1,1.5a57,57,0,0,1-45.4,22.5Zm0-110.67A53.49,53.49,0,0,0,72.5,139.11c-.36.47-.7.94-1,1.4a53.61,53.61,0,0,0,0,62.12c.33.48.67.92,1,1.37a53.55,53.55,0,0,0,31.6,20,54.52,54.52,0,0,0,22.11,0,53.56,53.56,0,0,0,31.61-20c.37-.47.7-.94,1-1.4a53.61,53.61,0,0,0,0-62.11c-.33-.46-.66-.93-1-1.38A53.45,53.45,0,0,0,115.16,118Z"/><ellipse class="cls-1" cx="115.16" cy="171.57" rx="33.52" ry="55.33"/><path class="cls-5" d="M115.16,228.24c-19.22,0-34.87-25.42-34.87-56.67s15.65-56.68,34.87-56.68S150,140.31,150,171.57,134.39,228.24,115.16,228.24Zm0-110.66c-17.74,0-32.18,24.22-32.18,54s14.44,54,32.18,54,32.18-24.21,32.18-54S132.91,117.58,115.16,117.58Z"/><ellipse class="cls-1" cx="115.16" cy="171.57" rx="0.01" ry="55.33"/><path class="cls-5" d="M115.16,228.24c-1,0-1.23-.54-1.31-1.35h0V116.25h0c.08-.81.36-1.36,1.31-1.36s1.24.55,1.32,1.36h0V226.88h0C116.4,227.69,116.12,228.24,115.16,228.24Z"/><path class="cls-5" d="M115.16,116.24a54.91,54.91,0,0,0-11.4,1.17q2.51-.14,5.13-.21h0q3.06-.09,6.26-.09t6.26.09h0q2.63.08,5.13.21A54.84,54.84,0,0,0,115.16,116.24Zm44,21.83a94.21,94.21,0,0,1-15.79,3.65h0a189.18,189.18,0,0,1-28.21,2h0a189.32,189.32,0,0,1-28.22-2h0a94.73,94.73,0,0,1-15.81-3.65c-.37.47-.71,1-1.06,1.44a95.17,95.17,0,0,0,16.27,3.83,193.89,193.89,0,0,0,28.83,2.09h0A193.66,193.66,0,0,0,144,143.34h0a94.68,94.68,0,0,0,16.25-3.83C159.91,139,159.56,138.54,159.19,138.07Z"/><path class="cls-5" d="M147.39,200.37l-3.39-.56h0a192.19,192.19,0,0,0-28.82-2.1h0c-2,0-4.11,0-6.15.1a184.36,184.36,0,0,0-22.67,2h0a96.39,96.39,0,0,0-15.71,3.63l-.54.19.54.76c.17.23.35.45.52.67a93.09,93.09,0,0,1,15.79-3.64h0A179.09,179.09,0,0,1,109,199.54c2,0,4.06-.08,6.15-.08h0a189,189,0,0,1,28.2,2h0c1.37.21,2.7.43,4,.67a85.56,85.56,0,0,1,11.8,3c.37-.47.72-1,1.06-1.44A88.67,88.67,0,0,0,147.39,200.37Zm-25.94,25.55h0q-3.06.11-6.25.1h0c-2.09,0-4.15,0-6.15-.1h-.13c-1.75,0-3.45-.11-5.14-.2,1.32.28,2.65.51,4,.68.43.06.84.11,1.27.15l1.3.13,1.06.08.47,0,.93.05.33,0,1,0h2.1l1,0,1.17-.06.85-.05,1.89-.17.87-.1c.68-.09,1.35-.18,2-.29.86-.14,1.71-.29,2.56-.47C124.9,225.81,123.19,225.88,121.45,225.92Z"/><path class="cls-5" d="M115.16,172.45H59.84v-.08c-.89-.09-.89-.31-.89-.79s0-.7.88-.8v-.08H170.48v.08c.88.1.88.31.88.8s0,.7-.88.79v.08H115.16Z"/><path class="cls-2" d="M69,273.24a8.14,8.14,0,0,0,.77,3.1,68.71,68.71,0,0,1-11.2-1c-1.05-.2-2.07-.41-3.05-.66a34.23,34.23,0,0,1-8.17-3.08,22.62,22.62,0,0,1-5.59-4.2c-4.78-5-4.69-10.25-4.65-10.83l0-89c0-18.92-17.87-20.35-18.64-20.41a3.53,3.53,0,1,1,.49-7c8.72.58,25.21,7.1,25.21,27.45v89.22a8.91,8.91,0,0,0,2.91,6c2,2,5.53,4.22,11.9,5.51a54.64,54.64,0,0,0,8.51,1c.75,0,1.52.06,2.32.07a8.15,8.15,0,0,0-.8,3.56C69,273,69,273.1,69,273.24Z"/><path class="cls-2" d="M154.21,272.83a8.46,8.46,0,0,0,.77,3.52H85.14a.54.54,0,0,0,0-.11,8.48,8.48,0,0,0,.73-3.41,6.79,6.79,0,0,0,0-.78,8.37,8.37,0,0,0-.75-2.76H155A8.27,8.27,0,0,0,154.21,272.83Z"/><polygon class="cls-3" points="171.24 242.35 40.63 242.35 40.63 171.56 189.68 171.56 171.24 242.35"/><path class="cls-2" d="M171.24,245.88H40.63a3.53,3.53,0,0,1-3.53-3.53V171.57A3.54,3.54,0,0,1,40.63,168H189.68a3.54,3.54,0,0,1,3.42,4.43l-18.44,70.78A3.53,3.53,0,0,1,171.24,245.88ZM44.16,238.82H168.51l16.6-63.72h-141Z"/><path class="cls-5" d="M70.62,232.54A2.65,2.65,0,0,1,68,229.89V182a2.65,2.65,0,0,1,5.3,0v47.86A2.65,2.65,0,0,1,70.62,232.54Z"/><path class="cls-5" d="M165.09,196.4H51.68a2.65,2.65,0,1,1,0-5.3H165.09a2.65,2.65,0,1,1,0,5.3Z"/><path class="cls-5" d="M165.09,222.07H51.68a2.65,2.65,0,0,1,0-5.3H165.09a2.65,2.65,0,1,1,0,5.3Z"/><path class="cls-5" d="M109,232.54a2.65,2.65,0,0,1-2.65-2.65V182a2.65,2.65,0,0,1,5.29,0v47.86A2.65,2.65,0,0,1,109,232.54Z"/><path class="cls-5" d="M147.39,232.54a2.65,2.65,0,0,1-2.65-2.65V182a2.65,2.65,0,0,1,5.3,0v47.86A2.65,2.65,0,0,1,147.39,232.54Z"/><path class="cls-2" d="M96.46,271.6a16,16,0,0,0-.29-2.31,18.27,18.27,0,0,0-.44-1.84,19.07,19.07,0,0,0-36.81.77,14.82,14.82,0,0,0-.36,1.9,17.29,17.29,0,0,0-.2,2.71c0,.5,0,1,.06,1.5s.07.68.11,1a17.39,17.39,0,0,0,.68,3.06,19.06,19.06,0,0,0,37-2.06c0-.19.08-.39.11-.59a19,19,0,0,0,.23-2.93C96.51,272.41,96.5,272,96.46,271.6Zm-11.32,4.75a8.44,8.44,0,0,1-14.9.93,6.56,6.56,0,0,1-.51-.94,8.14,8.14,0,0,1-.77-3.1c0-.14,0-.28,0-.41a8.15,8.15,0,0,1,.8-3.56,1.59,1.59,0,0,1,.15-.29,8.48,8.48,0,0,1,16,3.07,6.79,6.79,0,0,1,0,.78,8.48,8.48,0,0,1-.73,3.41A.54.54,0,0,1,85.14,276.35Z"/><path class="cls-2" d="M181.72,271.75A19.06,19.06,0,0,0,144.25,268c-.12.42-.21.86-.3,1.3a17.77,17.77,0,0,0-.32,2.83c0,.23,0,.47,0,.71a18.14,18.14,0,0,0,.33,3.47.43.43,0,0,1,0,.05,19.05,19.05,0,0,0,36.41,3.6,17.54,17.54,0,0,0,1.13-4,17.8,17.8,0,0,0,.26-3.11Q181.75,272.29,181.72,271.75ZM169,278.44a8.44,8.44,0,0,1-13.67-1.36,7.24,7.24,0,0,1-.38-.73,8.46,8.46,0,0,1-.77-3.52,8.27,8.27,0,0,1,.79-3.54c.09-.18.18-.37.28-.55a8.46,8.46,0,0,1,15.49,1.53,8.57,8.57,0,0,1,.39,2.56,8.27,8.27,0,0,1-.17,1.66A8.52,8.52,0,0,1,169,278.44Z"/><circle class="cls-6" cx="77.43" cy="272.82" r="11.66"/><path class="cls-2" d="M77.43,289.42A16.6,16.6,0,1,1,94,272.82,16.62,16.62,0,0,1,77.43,289.42Zm0-23.33a6.73,6.73,0,1,0,6.73,6.73A6.74,6.74,0,0,0,77.43,266.09Z"/><circle class="cls-6" cx="162.68" cy="272.82" r="11.66"/><path class="cls-2" d="M162.68,289.42a16.6,16.6,0,1,1,16.6-16.6A16.62,16.62,0,0,1,162.68,289.42Zm0-23.33a6.73,6.73,0,1,0,6.73,6.73A6.73,6.73,0,0,0,162.68,266.09Z"/></g></g></g></svg>