<svg xmlns="http://www.w3.org/2000/svg" viewBox="0 0 204.62 251.18"><defs><style>.cls-1{fill:#21b2c1;}.cls-2{fill:#322e63;}.cls-3{fill:#fff;}.cls-4{fill:#21e6c1;}</style></defs><title>icon coffe</title><g id="Layer_2" data-name="Layer 2"><g id="Layer_1-2" data-name="Layer 1"><g id="icon_coffe" data-name="icon coffe"><ellipse class="cls-1" cx="91.19" cy="230.73" rx="86.57" ry="16.39"/><path class="cls-2" d="M91.19,251.18c-23.37,0-45.37-1.73-62-4.87C3.54,241.44.57,235.09.57,230.73s3-10.72,28.66-15.58c16.59-3.14,38.59-4.87,62-4.87s45.38,1.73,62,4.87c25.68,4.86,28.65,11.22,28.65,15.58s-3,10.71-28.65,15.58C136.57,249.45,114.56,251.18,91.19,251.18ZM8.8,230.73c1.11,1.43,7,5,24.37,8.05,15.81,2.76,36.41,4.28,58,4.28s42.21-1.52,58-4.28c17.38-3,23.26-6.62,24.37-8.05-1.11-1.43-7-5-24.37-8-15.81-2.76-36.41-4.29-58-4.29s-42.21,1.53-58,4.29C15.79,225.72,9.91,229.3,8.8,230.73Zm164.94.25h0Z"/><path class="cls-3" d="M194.16,125.62c-4.08-2.71-9.28-2.74-14.06-1.8.15-2.76.24-5.54.24-8.35H2.9c0,63.66,39.72,115.26,88.72,115.26,24.88,0,47.36-13.31,63.46-34.74,15.45-2,28.37-8.46,36.18-18.94C202.68,161.73,206.32,133.71,194.16,125.62Zm-11.93,45.43c-4.42,4.91-10.69,8.62-18.21,11a135.7,135.7,0,0,0,15.42-50.28,14.43,14.43,0,0,1,5.36,1.59C195.56,139.32,192.34,159.84,182.23,171.05Z"/><path class="cls-2" d="M91.62,233.63C41.1,233.63,0,180.62,0,115.47a2.9,2.9,0,0,1,2.9-2.9H180.34a2.9,2.9,0,0,1,2.9,2.9c0,1.63,0,3.3-.08,5,5-.42,9.22.5,12.6,2.75h0c4.28,2.84,7.15,7.84,8.29,14.45,2.21,12.74-2.19,30-10.46,41.13-7.88,10.58-21,17.62-36.92,19.93C139.35,221.24,116.29,233.63,91.62,233.63ZM5.83,118.37C7,179,45,227.82,91.62,227.82c23.15,0,44.87-11.92,61.14-33.57a2.93,2.93,0,0,1,2-1.14c14.94-1.91,27.09-8.23,34.22-17.8,7.28-9.77,11.32-25.54,9.39-36.67-.6-3.48-2.1-8.15-5.78-10.6-2.85-1.9-6.85-2.36-11.89-1.38a2.9,2.9,0,0,1-3.46-3c.1-1.78.17-3.54.2-5.29ZM164,185a2.88,2.88,0,0,1-2.23-1.05,2.91,2.91,0,0,1-.32-3.24,133.8,133.8,0,0,0,15.09-49.2,2.88,2.88,0,0,1,1.07-1.95,2.84,2.84,0,0,1,2.14-.62,17.13,17.13,0,0,1,6.42,1.93c4.19,2.3,6.91,6.46,7.84,12,1.63,9.63-2.33,22-9.64,30.13h0c-4.7,5.22-11.26,9.21-19.48,11.85A2.72,2.72,0,0,1,164,185ZM182,135.31a141.33,141.33,0,0,1-11.86,41.2,33.35,33.35,0,0,0,10-7.4h0c6.1-6.77,9.56-17.4,8.23-25.27-.64-3.8-2.3-6.45-4.91-7.89A9.09,9.09,0,0,0,182,135.31Zm.28,35.75h0Z"/><path class="cls-4" d="M92.34,100.49A3.8,3.8,0,0,1,89,94.89C101.75,71.25,102.62,68,86.75,49c-8-9.63-9.25-21.1-3.54-33.15A53.41,53.41,0,0,1,93.9,1a3.79,3.79,0,0,1,5.16,5.56h0c-.87.81-21.09,20-6.48,37.55,8.65,10.38,13.38,17.59,13.59,26,.2,8-3.83,16.07-10.49,28.41A3.79,3.79,0,0,1,92.34,100.49Z"/><path class="cls-4" d="M123.83,100.49a3.8,3.8,0,0,1-3.34-5.6C133.24,71.25,134.11,68,118.24,49c-8-9.63-9.25-21.1-3.54-33.15A53.41,53.41,0,0,1,125.39,1a3.79,3.79,0,0,1,5.16,5.56h0c-.87.81-21.09,20-6.48,37.55,8.65,10.38,13.38,17.59,13.59,26,.2,8-3.83,16.07-10.49,28.41A3.79,3.79,0,0,1,123.83,100.49Z"/><path class="cls-4" d="M60.85,100.49a3.8,3.8,0,0,1-3.34-5.6C70.26,71.25,71.13,68,55.26,49c-8-9.63-9.25-21.1-3.54-33.15A53.41,53.41,0,0,1,62.41,1a3.8,3.8,0,0,1,5.16,5.57h0c-.87.8-21.09,20-6.48,37.54,8.65,10.38,13.38,17.59,13.59,26,.2,8-3.83,16.07-10.49,28.41A3.79,3.79,0,0,1,60.85,100.49Z"/></g></g></g></svg>