<?xml version="1.0" encoding="utf-8"?>
<!-- Generator: Adobe Illustrator 23.0.1, SVG Export Plug-In . SVG Version: 6.00 Build 0)  -->
<svg version="1.1" id="Layer_1" xmlns="http://www.w3.org/2000/svg" xmlns:xlink="http://www.w3.org/1999/xlink" x="0px" y="0px"
	 viewBox="0 0 1366 768" style="enable-background:new 0 0 1366 768;" xml:space="preserve">
<style type="text/css">
	.st0{fill:#21E6C1;}
	.st1{fill:#FFFFFF;stroke:#322E63;stroke-width:35.7717;stroke-miterlimit:10;}
	.st2{fill:#FFFFFF;stroke:#322E63;stroke-width:8;stroke-miterlimit:10;}
	.st3{fill:#EA4468;}
</style>
<title>icon coffe</title>
<g>
	<ellipse class="st0" cx="678.4" cy="690.7" rx="322.4" ry="61.1"/>
	<path class="st0" d="M678.4,766.9c-87,0-169-6.5-230.9-18.1c-95.5-18.1-106.5-41.8-106.5-58s11.1-40,106.8-58
		c61.8-11.7,143.7-18.1,230.9-18.1s169,6.5,230.9,18.1c95.7,18.1,106.7,41.8,106.7,58s-11.1,39.8-106.7,58
		C847.3,760.4,765.3,766.9,678.4,766.9z M371.4,690.7c4.2,5.4,26,18.6,90.8,29.9c58.9,10.3,135.6,15.9,216,15.9s157.2-5.6,216-15.9
		c64.8-11.1,86.6-24.7,90.8-29.9c-4.2-5.4-26-18.6-90.8-29.8c-58.9-10.3-135.6-16-216-16s-157.2,5.7-216,16
		C397.6,672.1,375.6,685.4,371.4,690.7z M985.9,691.6L985.9,691.6z"/>
</g>
<g>
	<path class="st0" d="M680.7,229.9c-4.8,0-8.7-3.9-8.7-8.7c0-1.4,0.4-2.9,1.1-4.1c29.2-54.1,31.1-61.5-5.2-105
		c-18.3-22.1-21.2-48.2-8.1-75.9c6.2-12.6,14.5-24.1,24.5-33.9c3.5-3.2,9-3.1,12.2,0.5c3.2,3.5,3.1,9-0.5,12.2l0,0
		c-2,1.9-48.2,45.8-14.9,85.9c19.8,23.7,30.6,40.2,31.1,59.5c0.5,18.3-8.8,36.8-24,65C686.8,228.2,683.8,229.9,680.7,229.9z"/>
	<path class="st0" d="M752.7,229.9c-4.8,0-8.7-3.9-8.7-8.7c0-1.4,0.4-2.9,1.1-4.1c29.2-54.1,31.1-61.5-5.2-105
		c-18.3-22.1-21.2-48.2-8.1-75.9c6.2-12.6,14.5-24.1,24.5-33.9c3.5-3.2,9-3.1,12.2,0.5s3.1,9-0.5,12.2l0,0l0,0
		c-2,1.9-48.2,45.8-14.9,85.9c19.8,23.7,30.6,40.2,31.1,59.5c0.5,18.3-8.8,36.8-24,65C758.9,228.2,755.9,229.9,752.7,229.9z"/>
	<path class="st0" d="M608.6,229.9c-4.8,0-8.7-3.9-8.7-8.7c0-1.4,0.4-2.9,1.1-4.1c29.2-54.1,31.1-61.5-5.2-105
		c-18.3-22.1-21.2-48.2-8.1-75.9c6.2-12.6,14.5-24.1,24.5-33.9c3.7-3.1,9.2-2.6,12.2,1c2.9,3.5,2.7,8.6-0.5,11.7l0,0
		c-2,1.8-48.2,45.8-14.9,85.8c19.8,23.7,30.6,40.2,31.1,59.5c0.5,18.3-8.8,36.8-24,65C614.8,228.2,611.9,229.9,608.6,229.9z"/>
</g>
<path class="st1" d="M857.6,596.3l-97.2-122.1L939,332.1c33.7-26.8,82.8-21.2,109.6,12.5v0c26.8,33.7,20.3,77.9-12.5,109.6
	L857.6,596.3z"/>
<path class="st1" d="M790.3,668.9H575.1c-72.8,0-131.9-59-131.9-131.9V310.3c0-8.8,7.2-16,16-16h447c8.8,0,16,7.2,16,16V537
	C922.2,609.9,863.2,668.9,790.3,668.9z"/>
<line class="st2" x1="807.5" y1="294.3" x2="807.5" y2="363.4"/>
<polygon class="st3" points="854.6,389.4 854.6,449.5 760.4,449.5 760.4,389.4 807.5,342.3 "/>
</svg>
