<?xml version="1.0" encoding="utf-8"?>
<!-- Generator: Adobe Illustrator 23.0.1, SVG Export Plug-In . SVG Version: 6.00 Build 0)  -->
<svg version="1.1" id="Layer_1" xmlns="http://www.w3.org/2000/svg" xmlns:xlink="http://www.w3.org/1999/xlink" x="0px" y="0px"
	 viewBox="0 0 1366 768" style="enable-background:new 0 0 1366 768;" xml:space="preserve">
<style type="text/css">
	.st0{fill:#FFFFFF;}
	.st1{clip-path:url(#SVGID_2_);fill:#B9D5EA;}
	.st2{clip-path:url(#SVGID_4_);fill:#322E63;}
	.st3{fill:#EA4468;}
	.st4{fill:#FF525F;}
	.st5{clip-path:url(#SVGID_6_);fill:#EA4468;}
	.st6{clip-path:url(#SVGID_8_);fill:#322E63;}
	.st7{fill:#322E63;}
	.st8{fill:#1F4287;}
</style>
<g>
	<path class="st0" d="M373.2,714.7V109.4c0-23.8,19.5-43.3,43.3-43.3h532.9c23.8,0,43.3,19.5,43.3,43.3v605.3
		c0,23.8-19.5,43.3-43.3,43.3H416.5C392.7,758,373.2,738.5,373.2,714.7L373.2,714.7z"/>
	<g>
		<g>
			<defs>
				<rect id="SVGID_1_" x="364.2" width="637.4" height="768"/>
			</defs>
			<clipPath id="SVGID_2_">
				<use xlink:href="#SVGID_1_"  style="overflow:visible;"/>
			</clipPath>
			<path class="st1" d="M373.2,274.7V109.5c0-23.8,19.5-43.3,43.3-43.3h532.9c23.8,0,43.3,19.5,43.3,43.3v165.2H373.2z M846.8,756.2
				l143.6-130.4l-1.1-61.1L778.1,758L846.8,756.2z"/>
		</g>
		<g>
			<defs>
				<rect id="SVGID_3_" x="364.2" width="637.4" height="768"/>
			</defs>
			<clipPath id="SVGID_4_">
				<use xlink:href="#SVGID_3_"  style="overflow:visible;"/>
			</clipPath>
			<path class="st2" d="M949.4,767H416.5c-28.8,0-52.3-23.4-52.3-52.3V94.8c0-28.8,23.4-52.3,52.3-52.3h532.9
				c28.8,0,52.3,23.4,52.3,52.3v619.9C1001.7,743.6,978.2,767,949.4,767L949.4,767z M416.5,60.6c-18.9,0-34.2,15.3-34.2,34.2v619.9
				c0,18.9,15.3,34.2,34.2,34.2h532.9c18.9,0,34.2-15.3,34.2-34.2V94.8c0-18.9-15.3-34.2-34.2-34.2
				C949.4,60.6,416.5,60.6,416.5,60.6z"/>
		</g>
	</g>
	<path class="st3" d="M373.2,220V95c0-23.8,19.5-43.3,43.3-43.3h532.9c23.8,0,43.3,19.5,43.3,43.3v125H373.2z"/>
	<path class="st4" d="M373.2,220V95c0-23.8,19.5-43.3,43.3-43.3h532.9c23.8,0,43.3,19.5,43.3,43.3v125H373.2z"/>
	<path class="st3" d="M373.2,220v-91.7c0-23.8,19.5-43.3,43.3-43.3h532.9c23.8,0,43.3,19.5,43.3,43.3V220L373.2,220L373.2,220z"/>
	<g>
		<g>
			<defs>
				<rect id="SVGID_5_" x="364.2" width="637.4" height="768"/>
			</defs>
			<clipPath id="SVGID_6_">
				<use xlink:href="#SVGID_5_"  style="overflow:visible;"/>
			</clipPath>
			<path class="st5" d="M472.3,51.6h41.5v93h-41.5L472.3,51.6L472.3,51.6z M599.2,51.6h41.5v93h-41.5V51.6z M726.5,51.6h41.5v93
				h-41.5V51.6z M852.9,51.6h41.5v93h-41.5V51.6z"/>
		</g>
		<g>
			<defs>
				<rect id="SVGID_7_" x="364.2" width="637.4" height="768"/>
			</defs>
			<clipPath id="SVGID_8_">
				<use xlink:href="#SVGID_7_"  style="overflow:visible;"/>
			</clipPath>
			<path class="st6" d="M1001.7,229H364.2V95c0-28.8,23.4-52.3,52.3-52.3h532.9c28.8,0,52.3,23.4,52.3,52.3V229z M382.2,211h601.4
				V95c0-18.9-15.3-34.2-34.2-34.2H416.5c-18.9,0-34.2,15.3-34.2,34.2V211z"/>
		</g>
	</g>
	<path class="st7" d="M493.2,131.5c-5,0-9-4.1-9-9V9.9c0-5,4.1-9,9-9c5,0,9,4.1,9,9v112.5C502.2,127.4,498.2,131.5,493.2,131.5
		L493.2,131.5z M619.9,131.5c-5,0-9-4.1-9-9V9.9c0-5,4.1-9,9-9c5,0,9,4.1,9,9v112.5C628.9,127.4,624.9,131.5,619.9,131.5
		L619.9,131.5z M746.9,131.5c-5,0-9-4.1-9-9V9.9c0-5,4.1-9,9-9c5,0,9,4.1,9,9v112.5C755.9,127.4,751.8,131.5,746.9,131.5
		L746.9,131.5z M873.6,131.5c-5,0-9-4.1-9-9V9.9c0-5,4.1-9,9-9c5,0,9,4.1,9,9v112.5C882.6,127.4,878.6,131.5,873.6,131.5
		L873.6,131.5z"/>
	<path class="st7" d="M647,353c5.5,0,10,1.7,13.5,5.2c3.5,3.5,5.2,8,5.2,13.5v56.1c0,6.8-2,14.4-6.2,23.2l-69.8,145.4H666v20.7
		H561.2v-12.5l80.9-167.8v-63h-53.8v59.4h-23.7v-61.5c0-5.5,1.7-10,5.2-13.5c3.5-3.5,8-5.2,13.5-5.2L647,353 M647,347.6h-63.6
		c-7,0-12.8,2.3-17.3,6.9c-4.5,4.5-6.9,10.4-6.9,17.3v61.5c0,2.9,2.5,5.4,5.4,5.4h23.7c2.9,0,5.4-2.5,5.4-5.4v-54h43v56.3
		l-80.2,166.7c-0.3,0.7-0.6,1.6-0.6,2.4v12.5c0,2.9,2.5,5.4,5.4,5.4H666c2.9,0,5.4-2.5,5.4-5.4v-20.7c0-2.9-2.5-5.4-5.4-5.4h-67.8
		l66.1-137.8c4.5-9.3,6.8-17.9,6.8-25.5v-56.1c0-7-2.3-12.8-6.9-17.3C659.8,349.9,653.9,347.6,647,347.6L647,347.6z M774.9,353v1
		l-60.8,174.3h49.3v-95.9h22.1v95.9h20.1v19.9h-20.1v68.8h-22.1v-68.8h-74.6v-11.9l64-183.3H774.9 M774.9,347.6h-22.1
		c-2.4,0-4.3,1.5-5.2,3.6l-64,183.3c-0.2,0.6-0.2,1.1-0.2,1.8v11.9c0,2.9,2.5,5.4,5.4,5.4H758v63.4c0,2.9,2.5,5.4,5.4,5.4h22.1
		c2.9,0,5.4-2.5,5.4-5.4v-63.4h14.6c2.9,0,5.4-2.5,5.4-5.4v-19.9c0-2.9-2.5-5.4-5.4-5.4h-14.6v-90.5c0-2.9-2.5-5.4-5.4-5.4h-22.1
		c-2.9,0-5.4,2.5-5.4,5.4v90.5h-36.3L780,355.7c0.2-0.6,0.2-1.1,0.2-1.8v-1C780.3,350,777.9,347.6,774.9,347.6L774.9,347.6z"/>
	<path class="st8" d="M666,617.1H561.2v-12.5l80.9-167.8v-63h-53.8v59.4h-23.7v-61.5c0-5.5,1.7-10,5.2-13.5c3.5-3.5,8-5.2,13.5-5.2
		H647c5.5,0,10,1.7,13.5,5.2s5.2,8,5.2,13.5v56.1c0,6.8-2,14.4-6.2,23.2l-69.8,145.4h76.5L666,617.1z M805.6,548.2h-20.1v68.8h-22.1
		v-68.8h-74.6v-11.9l64-183.3h22.1v1l-60.8,174.3h49.3v-95.9h22.1v95.9h20.1V548.2z"/>
</g>
</svg>
