<?xml version="1.0" encoding="utf-8"?>
<!-- Generator: Adobe Illustrator 23.0.1, SVG Export Plug-In . SVG Version: 6.00 Build 0)  -->
<svg version="1.1" id="Layer_1" xmlns="http://www.w3.org/2000/svg" xmlns:xlink="http://www.w3.org/1999/xlink" x="0px" y="0px"
	 viewBox="0 0 1366 768" style="enable-background:new 0 0 1366 768;" xml:space="preserve">
<style type="text/css">
	.st0{fill:#21B2C1;}
	.st1{fill:#1F4287;}
	.st2{fill:#322E63;}
	.st3{fill:#EA4468;}
</style>
<title>icon discount location</title>
<g>
	<path class="st0" d="M961.9,251c0,48.3-14.9,95.1-42.8,134.5c-1.5,2.1-3,4.2-4.4,5.9c-77.3,101.9-222.9,121.8-324.8,44.4
		c-16.9-12.9-31.7-27.7-44.4-44.4c-1.6-1.9-3-3.9-4.4-5.9c-57.2-80.6-57.2-188.3,0-268.8c1.5-2.1,3-4.2,4.6-5.9
		C623.1,8.8,768.6-11.1,870.6,66.4c16.7,12.6,31.6,27.7,44.4,44.4c1.6,1.9,3,4.2,4.4,5.9C947,155.9,961.9,202.8,961.9,251z"/>
	<path class="st1" d="M729.9,490.4c-74.8,0-145.1-34.9-190.5-94.4c-1.6-1.9-3.1-4.2-4.7-6.4c-59-83-59-194.3,0-277.3
		c1.6-2.1,3-4.2,4.6-6.4c34.8-45.8,84.9-77.3,141.1-89.2c32.4-6.7,65.9-6.7,98.6,0c56.1,11.7,106.3,43.5,141.1,89.2
		c1.6,1.9,3,4.2,4.6,6.1c59.1,83,59.1,194.3,0,277.3c-1.6,2.1-3,4.2-4.6,6.4C875,455.4,804.7,490.2,729.9,490.4L729.9,490.4z
		 M729.9,26.3c-70.2,0-136.4,32.9-178.8,88.6c-1.6,1.9-3,3.9-4.2,5.8c-55.4,77.9-55.4,182.5,0,260.4c1.5,1.9,2.8,3.9,4.2,5.8
		c32.6,43,79.7,72.6,132.4,83.8c30.5,6.4,62.1,6.4,92.7,0c52.9-11.1,99.8-40.9,132.4-83.8c1.6-1.9,3-3.9,4.2-5.8
		c55.4-77.9,55.4-182.5,0-260.4c-1.5-1.9-2.8-3.9-4.2-5.8C866.3,59.1,800.1,26.3,729.9,26.3L729.9,26.3z"/>
	<ellipse class="st0" cx="729.9" cy="251" rx="140.6" ry="232"/>
	<path class="st1" d="M729.9,488.7c-80.6,0-146.2-106.5-146.2-237.6S649.4,13.4,729.9,13.4s146,106.5,146,237.6
		S810.4,488.7,729.9,488.7z M729.9,24.7C655.5,24.7,595,126.3,595,251s60.6,226.3,134.9,226.3S864.9,375.9,864.9,251
		S804.4,24.7,729.9,24.7z"/>
	<path class="st0" d="M729.9,19.1c0,0,0,103.8,0,232s0,232,0,232s0-103.8,0-232S729.9,19.1,729.9,19.1z"/>
	<path class="st1" d="M729.9,488.7c-4.2,0-5.1-2.2-5.5-5.6l0,0v-464l0,0c0.3-3.4,1.6-5.6,5.5-5.6c3.9,0,5.3,2.2,5.6,5.6l0,0V483l0,0
		C735,486.4,734,488.7,729.9,488.7z"/>
	<path class="st1" d="M729.9,19.1c-16.1,0-32.1,1.6-47.7,4.9c7-0.3,14.2-0.7,21.6-0.9l0,0c8.6-0.2,17.3-0.3,26.4-0.3
		c9.1,0,17.8,0.2,26.4,0.3l0,0c7.4,0.2,14.5,0.6,21.6,0.9C761.9,20.7,745.9,19.1,729.9,19.1z M914.4,110.7
		c-21.6,7-43.7,12.1-66.2,15.3l0,0c-39.1,5.8-78.6,8.6-118.3,8.4l0,0c-39.7,0.2-79.1-2.7-118.3-8.4l0,0
		c-22.5-3.1-44.7-8.3-66.3-15.3c-1.6,1.9-3,4.2-4.4,5.9c22.2,7.4,45.2,12.6,68.3,16.1c40,5.9,80.4,8.8,120.9,8.8l0,0
		c40.6,0.2,80.9-2.8,120.9-8.8l0,0c23.1-3.4,45.9-8.8,68.1-16.1C917.5,114.6,916.2,112.6,914.4,110.7L914.4,110.7z"/>
	<path class="st1" d="M865.1,371.8l-14.2-2.2l0,0c-40-5.9-80.4-8.9-120.9-8.8l0,0c-8.4,0-17.2,0-25.8,0.3
		c-31.7,0.9-63.5,3.7-95.1,8.4l0,0c-22.2,3.1-44.4,8.3-65.8,15.3l-2.2,0.9l2.2,3.1c0.7,0.9,1.5,1.9,2.1,2.8
		c21.6-7,43.7-12.1,66.2-15.3l0,0c30.5-4.6,61.5-7.2,92.4-7.9c8.4,0,17-0.3,25.8-0.3l0,0c39.5-0.2,79.1,2.7,118.3,8.4l0,0
		c5.8,0.9,11.4,1.8,16.9,2.8c16.9,3,33.3,7.2,49.5,12.6c1.6-1.9,3-4.2,4.4-5.9C901.2,379.9,883.3,375.1,865.1,371.8z M756.2,479
		L756.2,479c-8.6,0.3-17.3,0.6-26.2,0.3l0,0c-8.8,0-17.3,0-25.8-0.3h-0.6c-7.4,0-14.4-0.6-21.6-0.9c5.6,1.2,11.1,2.1,16.9,2.8
		c1.8,0.2,3.5,0.6,5.3,0.7l5.5,0.6l4.4,0.3h1.9l3.9,0.2h1.5h4.2h8.8h4.2l4.9-0.2l3.5-0.2l7.9-0.7l3.7-0.3c2.8-0.3,5.6-0.7,8.4-1.2
		c3.7-0.6,7.2-1.2,10.7-1.9C770.9,478.5,763.6,478.8,756.2,479z"/>
	<path class="st1" d="M729.9,254.7h-232v-0.3c-3.7-0.3-3.7-1.2-3.7-3.4c0-2.1,0-3,3.7-3.4v-0.3h464v0.3c3.7,0.3,3.7,1.2,3.7,3.4
		c0,2.1,0,3-3.7,3.4v0.3H729.9z"/>
	<path class="st2" d="M536.4,677.3c0.2,4.6,1.2,8.9,3.1,13c-15.8-0.2-31.4-1.6-47.1-4.2c-4.4-0.9-8.6-1.8-12.9-2.8
		c-12-2.8-23.5-7.2-34.2-13c-8.6-4.6-16.7-10.5-23.5-17.5c-20-20.9-19.7-43-19.4-45.5V234.4c0-79.4-74.9-85.3-78.1-85.6
		c-8.3,0.3-15.1-5.9-15.4-14.2s5.9-15.1,14.2-15.4c1,0,2.1,0,3.4,0.2c36.5,2.5,105.6,29.8,105.6,115.1v374.1
		c0.7,9.6,5.1,18.6,12.3,25.1c8.4,8.4,23.1,17.8,49.8,23.1c11.7,2.2,23.7,3.7,35.7,4.2c3.1,0,6.4,0.2,9.6,0.3
		c-2.2,4.7-3.4,9.8-3.4,14.9C536.4,676.4,536.4,676.8,536.4,677.3z"/>
	<path class="st2" d="M893.7,675.8c0,5.1,1,10.2,3.1,14.8H604.1c0-0.2,0-0.3,0-0.6c1.9-4.6,3-9.3,3-14.2c0-1,0-2.1,0-3.4
		c-0.3-4-1.5-7.9-3.1-11.6H897C894.7,665.4,893.7,670.5,893.7,675.8z"/>
	<polygon class="st0" points="965.1,547.8 417.4,547.8 417.4,251 1042.3,251 	"/>
	<path class="st2" d="M965.1,562.8H417.4c-8.3,0-14.8-6.7-14.8-14.8V251c0-8.3,6.5-14.9,14.8-14.9l0,0h624.9
		c8.3,0,14.9,6.7,14.8,14.9c0,1.2-0.2,2.5-0.6,3.7l-77.5,296.7C977.7,558,971.7,562.8,965.1,562.8z M432.1,533h521.5l69.5-267.1
		H431.9L432.1,533z"/>
	<path class="st1" d="M543.2,506.8c-6.1,0-11.1-5.1-11.1-11.1v-201c0-6.1,4.9-11.1,11.1-11.1s11.1,4.9,11.1,11.1v200.7
		C554.2,501.6,549.3,506.8,543.2,506.8C543.4,506.8,543.2,506.8,543.2,506.8z"/>
	<path class="st1" d="M939.3,355.1H463.7c-6.1,0-11.1-4.9-11.1-11.1c0-6.1,4.9-11.1,11.1-11.1h475.6c6.1,0,11.1,4.9,11.1,11.1
		C950.4,350.2,945.4,355.1,939.3,355.1z"/>
	<path class="st1" d="M939.3,462.8H463.7c-6.1,0-11.1-4.9-11.1-11.1s4.9-11.1,11.1-11.1h475.6c6.1,0,11.1,4.9,11.1,11.1
		C950.4,457.8,945.4,462.8,939.3,462.8z"/>
	<path class="st1" d="M704.1,506.8c-6.1,0-11.1-4.9-11.1-11.1v-201c0.3-6.1,5.6-10.7,11.7-10.4c5.6,0.3,9.9,4.7,10.4,10.4v200.7
		C715.2,501.6,710.3,506.8,704.1,506.8L704.1,506.8z"/>
	<path class="st1" d="M865.1,506.8c-6.1,0-11.1-4.9-11.1-11.1v-201c0-6.1,4.9-11.1,11.1-11.1c6.1,0,11.1,4.9,11.1,11.1v200.7
		C876.3,501.6,871.3,506.8,865.1,506.8L865.1,506.8z"/>
	<path class="st2" d="M651.5,670.5c-0.2-3.4-0.6-6.5-1.2-9.6c-0.6-2.7-1-5.3-1.9-7.7c-12.4-42.2-56.9-66.7-99.1-54.2
		c-27.4,8-48.3,29.8-55.1,57.6c-0.7,2.7-1.2,5.3-1.6,7.9c-0.6,3.7-0.9,7.6-0.9,11.4c0,2.1,0,4.2,0.2,6.4c0.2,2.1,0.3,2.8,0.6,4.2
		c0.6,4.4,1.6,8.6,2.8,12.9c12.6,42.2,57.2,66.2,99.5,53.5c28.7-8.6,50.2-32.6,55.7-62.1c0-0.9,0.3-1.6,0.6-2.5
		c0.7-4,0.9-8.3,0.9-12.3C651.7,674,651.7,672.2,651.5,670.5z M604.1,690.5c-8,17.9-28.9,25.8-46.8,17.8c-6.5-3-12-7.7-15.6-13.9
		c-0.9-1.2-1.6-2.7-2.1-3.9c-1.9-4-3-8.4-3.1-13c0-0.6,0-1.2,0-1.8c0-5.1,1-10.4,3.4-14.9c0.2-0.3,0.3-0.9,0.7-1.2
		c8.9-17.5,30.4-24.4,47.9-15.6c10.8,5.6,18.1,16.3,19.3,28.4c0,1,0,2.1,0,3.4c0,4.9-1,9.8-3,14.2
		C604.1,690.2,604.1,690.3,604.1,690.5z"/>
	<path class="st2" d="M1008.9,671.2c-2.5-44-40.2-77.8-84.3-75.3c-34.5,1.9-64,25.9-72.9,59.5c-0.6,1.8-0.9,3.7-1.2,5.5
		c-0.7,3.9-1.2,7.9-1.5,12c0,0.9,0,1.9,0,3c0,4.9,0.6,9.8,1.5,14.5v0.2c8,43.4,49.8,72,93.2,63.9c26.8-5.1,49.3-23.4,59.5-48.7
		c2.2-5.5,3.9-11.1,4.7-16.9c0.7-4.4,1-8.6,1-13C1009.1,674.2,1009.1,672.6,1008.9,671.2z M955.6,699.2c-12.9,14.8-35.3,16.1-50,3.4
		c-3-2.7-5.5-5.6-7.4-8.9c-0.6-1-1-1.9-1.6-3c-2.1-4.6-3.1-9.6-3.1-14.8c0-5.1,1-10.2,3.4-14.9c0.3-0.7,0.7-1.6,1.2-2.2
		c9.5-17.2,31.1-23.5,48.1-14.1c8,4.4,14.1,11.7,16.9,20.6c1,3.5,1.6,7,1.6,10.7c0,2.2-0.2,4.7-0.7,7
		C962.6,688.7,959.9,694.5,955.6,699.2z"/>
	<circle class="st3" cx="571.7" cy="675.5" r="49"/>
	<path class="st2" d="M571.7,745.3c-38.4,0-69.6-31.1-69.6-69.5s31.1-69.6,69.5-69.6c38.4,0,69.6,31.1,69.6,69.5c0,0,0,0,0,0.2
		C641.1,714,610,745.1,571.7,745.3z M571.7,647.5c-15.6,0-28.3,12.6-28.3,28.3S556,704,571.7,704s28.3-12.6,28.3-28.3
		C599.9,660.1,587.2,647.5,571.7,647.5L571.7,647.5z"/>
	<circle class="st3" cx="929.1" cy="675.5" r="49"/>
	<path class="st2" d="M929.1,745.3c-38.4,0-69.6-31.2-69.6-69.6c0-38.4,31.2-69.6,69.6-69.6c38.4,0,69.6,31.2,69.6,69.6
		C998.8,714,967.6,745.3,929.1,745.3z M929.1,647.5c-15.6,0-28.3,12.6-28.3,28.3s12.6,28.3,28.3,28.3c15.6,0,28.3-12.6,28.3-28.3
		C957.4,660.1,944.8,647.5,929.1,647.5L929.1,647.5L929.1,647.5z"/>
</g>
</svg>
