<?xml version="1.0" encoding="utf-8"?>
<!-- Generator: Adobe Illustrator 23.0.1, SVG Export Plug-In . SVG Version: 6.00 Build 0)  -->
<svg version="1.1" id="Layer_1" xmlns="http://www.w3.org/2000/svg" xmlns:xlink="http://www.w3.org/1999/xlink" x="0px" y="0px"
	 viewBox="0 0 1366 768" style="enable-background:new 0 0 1366 768;" xml:space="preserve">
<style type="text/css">
	.st0{fill:#FFFFFF;}
	.st1{fill:#0CE5BB;}
	.st2{fill:#B9D5EA;}
	.st3{clip-path:url(#SVGID_2_);fill:#FFFFFF;}
	.st4{clip-path:url(#SVGID_4_);fill:#322E63;}
	.st5{fill:#322E63;}
	.st6{fill:#198EBC;}
	.st7{fill:#071E3D;}
	.st8{fill:#1F4287;}
	.st9{fill:#FF525F;}
	.st10{fill:#EA4468;}
</style>
<g>
	<path class="st0" d="M529.3,660.1l-258.7,96.7c-6.5,2.4-11.8-0.3-11.8-5.8V345.6c0-5.6,5.3-12.2,11.8-14.6l258.7-96.7
		c6.5-2.4,11.8,0.3,11.8,5.8v405.3C541.1,651.1,535.9,657.6,529.3,660.1L529.3,660.1z"/>
	<path class="st1" d="M522.4,631l-220,82.3c-5.5,2.1-10-0.1-10-4.9V363.6c0-4.8,4.5-10.3,10-12.3l220-82.4c5.5-2.1,10,0.1,10,4.9
		v344.9C532.5,623.4,528,628.9,522.4,631L522.4,631z"/>
	<path class="st2" d="M552.9,660.1l258.7,96.7c6.5,2.4,11.8-0.3,11.8-5.8V325.5c0-5.6-5.3-12.2-11.8-14.6l-258.7-76.6
		c-6.5-2.4-11.8,0.3-11.8,5.8v405.3C541.1,651.1,546.4,657.6,552.9,660.1L552.9,660.1z"/>
	<path class="st1" d="M557.1,625.7l250,93.6c6.3,2.3,11.4-0.1,11.4-5.5V321.9c0-5.4-5.1-11.8-11.4-14.1l-250-93.6
		c-6.3-2.3-11.4,0.1-11.4,5.5v391.9C545.6,617.1,550.8,623.5,557.1,625.7L557.1,625.7z"/>
	<path class="st0" d="M1093.9,660.1l-258.7,96.7c-6.5,2.4-11.8-0.3-11.8-5.8V325.5c0-5.6,5.3-12.2,11.8-14.6l258.7-96.7
		c6.5-2.4,11.8,0.3,11.8,5.8v425.4C1105.5,651.1,1100.3,657.6,1093.9,660.1L1093.9,660.1z"/>
	<path class="st1" d="M1060.1,631.9l-220,83.4c-5.5,2.1-10-0.1-10-4.9V360.7c0-4.8,4.5-10.4,10-12.5l219.9-83.4
		c5.5-2.1,10,0.1,10,4.9v349.5C1070.1,624,1065.6,629.8,1060.1,631.9L1060.1,631.9z"/>
	<g>
		<g>
			<defs>
				<rect id="SVGID_1_" x="249" width="868" height="769"/>
			</defs>
			<clipPath id="SVGID_2_">
				<use xlink:href="#SVGID_1_"  style="overflow:visible;"/>
			</clipPath>
			<path class="st3" d="M792.9,592.9c-21.3,0-45.2-5.1-73.1-17.7c-28.9-12.9-44.8-35-61.6-58.3c-29-40-61.8-85.6-179.3-98.6
				c-47.7-5.3-93.3,7.4-136,37.8c-32.5,23.2-50.9,48.4-51.1,48.8c-5.3,7.3-15.2,8.8-22.3,3.8c-7.3-5.1-8.8-15.2-3.8-22.3
				c0.8-1.3,21.1-29.2,57.6-55.4c48.8-35.1,103.9-50.4,159.2-44.3c131.6,14.7,170.4,68.5,201.7,111.6c15.4,21.3,27.7,38.4,48.8,47.8
				c68.5,30.9,103,8.7,150.5-22c7.8-5,15.9-10.3,24.5-15.4c25.1-15.2,45.9-50.2,68-87.3c27.6-46.4,56.2-94.6,100.9-120.7
				c7.7-4.5,17.4-1.9,22,5.8s1.9,17.4-5.8,22c-37.5,21.8-64,66.4-89.4,109.3c-24.2,40.6-46.9,79-79,98.4c-8.2,4.9-16.1,10-23.7,14.9
				C867.7,572.3,835.7,592.9,792.9,592.9L792.9,592.9z"/>
		</g>
		<g>
			<defs>
				<rect id="SVGID_3_" x="249" width="868" height="769"/>
			</defs>
			<clipPath id="SVGID_4_">
				<use xlink:href="#SVGID_3_"  style="overflow:visible;"/>
			</clipPath>
			<path class="st4" d="M266,767.7c-3.8,0-7.3-1-10.3-3.1c-4.4-3-6.9-8-6.9-13.7V345.6c0-9.8,7.9-20.1,18.3-24l258.7-96.7
				c6.8-2.5,13.4-1.9,18.4,1.5c4.4,3,6.9,8,6.9,13.7v405.3c0,9.8-7.9,20.1-18.3,24l-258.7,96.7C271.4,767.1,268.5,767.7,266,767.7
				L266,767.7z M531.1,244.4l-256.9,96.1c-3,1.1-5.1,4.1-5.3,5.3v400.9l256.9-96.1c3-1.1,5.1-4.1,5.3-5.3V244.4z"/>
		</g>
	</g>
	<path class="st5" d="M816.2,767.7c-2.6,0-5.4-0.5-8.3-1.5l-258.7-96.7c-10.4-3.9-18.3-14.3-18.3-24V240.1c0-5.6,2.5-10.5,6.9-13.7
		c4.9-3.4,11.4-4,18.1-1.6l258.8,76.6l0.3,0.1c10.4,3.9,18.3,14.3,18.3,24v425.4c0,5.6-2.5,10.5-6.9,13.7
		C823.5,766.6,820,767.7,816.2,767.7L816.2,767.7z M551.2,244.2v401.2c0.1,1.1,2.3,4,5.3,5.1l257,96v-421c-0.1-1.1-2.3-3.9-5-5
		L551.2,244.2z"/>
	<path class="st5" d="M830.5,767.7c-3.8,0-7.3-1-10.3-3.1c-4.4-3-6.9-8-6.9-13.7V325.5c0-9.8,7.8-20.1,18.3-24l258.7-96.7
		c6.8-2.5,13.4-1.9,18.4,1.5c4.4,3,6.9,8,6.9,13.7v425.4c0,9.8-7.9,20.1-18.3,24l-258.7,96.7C835.9,767.1,833,767.7,830.5,767.7
		L830.5,767.7z M1095.5,224.3l-256.9,96.1c-3,1.1-5.1,4.1-5.3,5.3v421l256.9-96.1c3-1.1,5.1-4.1,5.3-5.3V224.3z"/>
	<path class="st0" d="M460.2,232.8c0,122.7,99.5,222.2,222.2,222.2s222.2-99.5,222.2-222.2s-99.4-222.2-222-222.2
		C559.7,10.7,460.2,110.1,460.2,232.8L460.2,232.8z"/>
	<path class="st2" d="M682.5,455c122.7,0,222.2-99.5,222.2-222.2H460.2C460.2,355.5,559.7,455,682.5,455L682.5,455z"/>
	<path class="st5" d="M682.5,465c-62,0-120.3-24.2-164.2-68c-43.9-43.9-68-102.1-68-164.2c0-62,24.2-120.3,68-164.2
		c43.9-43.9,102.1-68,164.2-68c62,0,120.3,24.2,164.2,68c43.9,43.9,68,102.1,68,164.2c0,62-24.2,120.3-68,164.2
		C802.8,440.8,744.5,465,682.5,465L682.5,465z M682.5,20.7c-117,0-212.1,95.1-212.1,212.1S565.5,445,682.5,445
		s212.1-95.1,212.1-212.1C894.6,115.8,799.4,20.7,682.5,20.7L682.5,20.7z"/>
	<path class="st6" d="M512.9,232.8c0,93.7,75.9,169.6,169.6,169.6s169.6-75.9,169.6-169.6S776.2,63.2,682.5,63.2
		S512.9,139.1,512.9,232.8L512.9,232.8z"/>
	<path class="st7" d="M682.5,412.5c-99.1,0-179.6-80.5-179.6-179.6S583.4,53.2,682.5,53.2s179.6,80.5,179.6,179.6
		S781.5,412.5,682.5,412.5L682.5,412.5z M682.5,73.3c-88.1,0-159.6,71.5-159.6,159.6s71.5,159.6,159.6,159.6s159.6-71.5,159.6-159.6
		S770.5,73.3,682.5,73.3L682.5,73.3z"/>
	<path class="st8" d="M547,229.6c0,74.8,60.7,135.5,135.5,135.5S818,304.3,818,229.6S757.3,94.1,682.5,94.1
		C607.6,94.1,547,154.7,547,229.6L547,229.6z"/>
	<path class="st0" d="M535,380.6l109-185.4l76.5,76.5L535,380.6z"/>
	<path class="st2" d="M535,380.6l147.3-147.3l38.3,38.3L535,380.6z"/>
	<path class="st9" d="M830,85.6l-185.4,109l76.5,76.5L830,85.6z"/>
	<path class="st10" d="M830,85.6L682.8,232.8l38.3,38.3L830,85.6z"/>
	<path class="st5" d="M535,390.6c-2.6,0-5.1-1-7.2-2.9c-3.3-3.3-3.9-8.3-1.6-12.2l109.1-185.5c1.6-2.8,4.3-4.5,7.4-4.9
		c3.1-0.4,6.1,0.8,8.3,2.8l76.5,76.5c2.3,2.3,3.3,5.3,2.8,8.3c-0.4,3.1-2.3,5.8-4.9,7.4L539.9,389.3
		C538.5,390.3,536.6,390.6,535,390.6L535,390.6z M645.9,211.5l-82.8,141l141.1-82.9L645.9,211.5z"/>
	<path class="st5" d="M721,281.1c-2.6,0-5.3-1-7.2-2.9l-76.5-76.5c-2.3-2.3-3.3-5.3-2.8-8.3c0.4-3.1,2.3-5.8,4.9-7.4L825,77
		c3.9-2.3,8.9-1.8,12.2,1.6c3.3,3.3,3.9,8.3,1.6,12.2L729.7,276.4c-1.6,2.8-4.3,4.5-7.4,4.9H721V281.1z M660.8,196.6l58.2,58.2
		l82.9-141L660.8,196.6z"/>
	<path class="st0" d="M645.4,233.6c0,13.2,7,25.5,18.6,32.1c11.4,6.6,25.6,6.6,37,0c11.4-6.6,18.6-18.8,18.6-32.1
		c0-20.4-16.6-37-37-37C662.1,196.5,645.4,213.1,645.4,233.6L645.4,233.6z"/>
	<path class="st5" d="M682.5,280.8c-26,0-47-21.2-47-47s21.2-47,47-47c25.8,0,47,21.2,47,47S708.5,280.8,682.5,280.8L682.5,280.8z
		 M682.5,206.5c-14.9,0-27,12.2-27,27c0,14.8,12.2,27,27,27c14.9,0,27-12.2,27-27C709.5,218.7,697.4,206.5,682.5,206.5L682.5,206.5z
		"/>
</g>
</svg>
