<?xml version="1.0" encoding="utf-8"?>
<!-- Generator: Adobe Illustrator 23.0.1, SVG Export Plug-In . SVG Version: 6.00 Build 0)  -->
<svg version="1.1" id="Layer_1" xmlns="http://www.w3.org/2000/svg" xmlns:xlink="http://www.w3.org/1999/xlink" x="0px" y="0px"
	 viewBox="0 0 1366 768" style="enable-background:new 0 0 1366 768;" xml:space="preserve">
<style type="text/css">
	.st0{fill:#21B2C1;}
	.st1{fill:#B9D5EA;}
	.st2{clip-path:url(#SVGID_2_);fill:#322E63;}
	.st3{clip-path:url(#SVGID_4_);fill:#322E63;}
	.st4{fill:#1F4287;}
	.st5{fill:#322E63;}
	.st6{fill:#FF525F;}
	.st7{fill:#EA4468;}
	.st8{fill:#21E6C1;}
</style>
<g>
	<path class="st0" d="M444.6,715.3V72.2c0-23.7,19.4-43.1,43.1-43.1h460.8c23.7,0,43.1,19.4,43.1,43.1v643.1
		c0,23.7-19.4,43.1-43.1,43.1H487.7C464,758.4,444.6,739,444.6,715.3L444.6,715.3z"/>
	<path class="st1" d="M446.1,709.7V77.6c0-5.9,4.8-10.8,10.8-10.8h482.7c5.9,0,10.8,4.8,10.8,10.8v632.1c0,5.9-4.8,10.8-10.8,10.8
		H456.8C451,720.5,446.1,715.5,446.1,709.7L446.1,709.7z"/>
	<g>
		<g>
			<defs>
				<rect id="SVGID_1_" x="365.5" y="1.3" width="634.9" height="767.1"/>
			</defs>
			<clipPath id="SVGID_2_">
				<use xlink:href="#SVGID_1_"  style="overflow:visible;"/>
			</clipPath>
			<path class="st2" d="M939.7,729.4H456.8c-10.9,0-19.7-8.9-19.7-19.7V77.6c0-10.9,8.9-19.7,19.7-19.7h482.7
				c10.9,0,19.7,8.9,19.7,19.7v632.1C959.4,720.5,950.6,729.4,939.7,729.4L939.7,729.4z M456.8,75.8c-1,0-1.8,0.8-1.8,1.8v632.1
				c0,1,0.8,1.8,1.8,1.8h482.7c1,0,1.8-0.8,1.8-1.8V77.6c0-1-0.8-1.8-1.8-1.8H456.8z"/>
		</g>
		<g>
			<defs>
				<rect id="SVGID_3_" x="365.5" y="1.3" width="634.9" height="767.1"/>
			</defs>
			<clipPath id="SVGID_4_">
				<use xlink:href="#SVGID_3_"  style="overflow:visible;"/>
			</clipPath>
			<path class="st3" d="M948.3,767.3H487.7c-28.7,0-52.1-23.3-52.1-52.1V72.2c0-28.7,23.3-52.1,52.1-52.1h460.8
				c28.7,0,52.1,23.3,52.1,52.1v643.1C1000.4,744,977.1,767.3,948.3,767.3L948.3,767.3z M487.7,38.1c-18.8,0-34.1,15.3-34.1,34.1
				v643.1c0,18.8,15.3,34.1,34.1,34.1h460.8c18.8,0,34.1-15.3,34.1-34.1V72.2c0-18.8-15.3-34.1-34.1-34.1
				C948.4,38.1,487.7,38.1,487.7,38.1z"/>
		</g>
	</g>
	<path class="st0" d="M374.5,715.3V72.2c0-23.7,19.4-43.1,43.1-43.1h442.2c23.7,0,43.1,19.4,43.1,43.1v643.1
		c0,23.7-19.4,43.1-43.1,43.1H417.6C393.9,758.4,374.5,739,374.5,715.3L374.5,715.3z"/>
	<path class="st4" d="M374.5,715.3V72.2c0-23.7,19.4-43.1,43.1-43.1h406.8c23.7,0,43.1,19.4,43.1,43.1v643.1
		c0,23.7-19.4,43.1-43.1,43.1H417.6C393.9,758.4,374.5,739,374.5,715.3L374.5,715.3z"/>
	<path class="st5" d="M859.8,767.3H417.6c-28.7,0-52.1-23.3-52.1-52.1V72.2c0-28.7,23.3-52.1,52.1-52.1h442.2
		c28.7,0,52.1,23.3,52.1,52.1v643.1C911.9,744,888.5,767.3,859.8,767.3L859.8,767.3z M417.6,38.1c-18.8,0-34.1,15.3-34.1,34.1v643.1
		c0,18.8,15.3,34.1,34.1,34.1h442.2c18.8,0,34.1-15.3,34.1-34.1V72.2c0-18.8-15.3-34.1-34.1-34.1C859.8,38.1,417.6,38.1,417.6,38.1z
		"/>
	<path class="st0" d="M592.9,237.5l-65.3-43.4l-65.3,43.4V49h130.6V237.5z"/>
	<path class="st6" d="M592.9,198.9l-65.3-43.4l-65.3,43.4V32c0-11.9,9.6-21.5,21.5-21.5h87.5c11.9,0,21.5,9.6,21.5,21.5V198.9
		L592.9,198.9z"/>
	<path class="st7" d="M592.9,191.7l-65.3-45.1l-65.3,45.1V60.5c0-12.3,9.6-22.3,21.5-22.3h87.5c11.9,0,21.5,10,21.5,22.3V191.7
		L592.9,191.7z"/>
	<path class="st5" d="M592.9,207.9c-1.7,0-3.5-0.6-4.9-1.6l-60.2-40.1l-60.4,40.2c-2.8,1.8-6.3,2-9.2,0.4c-2.9-1.6-4.7-4.6-4.7-7.9
		V32c0-16.8,13.7-30.5,30.5-30.5h87.5C588.3,1.4,602,15.1,602,32v166.9c0,3.4-1.8,6.4-4.7,7.9C595.9,207.5,594.5,207.9,592.9,207.9
		L592.9,207.9z M483.9,19.4c-7,0-12.6,5.6-12.6,12.6v150.1l51.4-34.2c3-2,7-2,10,0l51.4,34.2V32c0-7-5.6-12.6-12.6-12.6
		C571.5,19.4,483.9,19.4,483.9,19.4z"/>
	<path class="st8" d="M780.7,304.7H629.3c-4.9,0-9-4-9-9c0-4.9,4-9,9-9h151.5c4.9,0,9,4,9,9C789.7,300.6,785.7,304.7,780.7,304.7
		L780.7,304.7z M780.7,375.8H710c-4.9,0-9-4-9-9c0-4.9,4-9,9-9h70.7c4.9,0,9,4,9,9S785.7,375.8,780.7,375.8L780.7,375.8z
		 M656.3,375.8h-164c-4.9,0-9-4-9-9c0-4.9,4-9,9-9h164c4.9,0,9,4,9,9S661.4,375.8,656.3,375.8L656.3,375.8z M780.7,442H492.3
		c-4.9,0-9-4-9-9c0-4.9,4-9,9-9h288.3c4.9,0,9,4,9,9C789.7,438,785.7,442,780.7,442L780.7,442z M780.7,509.9H640.8c-4.9,0-9-4-9-9
		c0-4.9,4-9,9-9h139.8c4.9,0,9,4,9,9C789.7,505.8,785.7,509.9,780.7,509.9L780.7,509.9z M574.4,509.9h-82.1c-4.9,0-9-4-9-9
		c0-4.9,4-9,9-9h82c4.9,0,9,4,9,9C583.4,505.8,579.3,509.9,574.4,509.9L574.4,509.9z"/>
</g>
</svg>
