<?xml version="1.0" encoding="utf-8"?>
<!-- Generator: Adobe Illustrator 23.0.1, SVG Export Plug-In . SVG Version: 6.00 Build 0)  -->
<svg version="1.1" id="Layer_1" xmlns="http://www.w3.org/2000/svg" xmlns:xlink="http://www.w3.org/1999/xlink" x="0px" y="0px"
	 viewBox="0 0 1366 765.3" style="enable-background:new 0 0 1366 765.3;" xml:space="preserve">
<style type="text/css">
	.st0{fill:#21E6C1;}
	.st1{fill:#322E63;}
	.st2{fill:#F9F9F9;}
	.st3{fill:#1F4287;}
	.st4{fill:#265BB2;}
	.st5{fill:none;}
	.st6{fill:#EA4468;}
	.st7{fill:#F74876;}
</style>
<title>icon mounten</title>
<g>
	<g id="Layer_1-2">
		<g id="icon_mounten">
			<path class="st0" d="M557.7,247.4c-6.2,0-12.3,1-18.1,2.9c-3.5-44.2-42.1-77.2-86.4-73.7c-31.7,2.5-59,23.5-69.5,53.5
				c-36.1-10.2-73.6,10.9-83.8,47s10.9,73.6,47,83.8c6,1.7,12.1,2.5,18.3,2.5h192.4c32,0,58-26,58-58S589.7,247.4,557.7,247.4z"/>
			<path class="st0" d="M1030.5,284.5c-5.3,0-10.6,0.9-15.7,2.5c-3-38.3-36.5-67-74.8-64c-27.5,2.1-51.2,20.4-60.3,46.4
				c-5.2-1.5-10.6-2.2-16-2.2c-32.5-0.8-59.6,24.9-60.4,57.4s24.9,59.6,57.4,60.4c1,0,2,0,3,0h166.7c27.8,0,50.3-22.5,50.3-50.3
				C1080.8,307,1058.3,284.5,1030.5,284.5z"/>
			<path class="st1" d="M1138.8,750.7h-698L700.7,276l0.2-0.5L764.8,159c7.6-13.8,24.9-18.8,38.7-11.2c4.7,2.6,8.6,6.5,11.2,11.2
				l94,171.7l0.6,1L1138.8,750.7z"/>
			<path class="st1" d="M1167.9,768H411.7l338-617.2c8-14.6,23.4-23.8,40-23.8l0,0c16.7,0,32.1,9.1,40.2,23.8L1167.9,768z
				 M470,733.4h639.6l-310-566.1c-2-3.6-5.8-5.8-9.9-5.8l0,0c-4.1,0-7.9,2.2-9.8,5.8l-64.1,117L470,733.4z"/>
			<path class="st2" d="M908.8,330.8c-34-0.7-36.4-49.9-65.5-49.9s-42.2,52.2-80.3,49.9c-35.8-2.1-59.4-49.9-62-55.4l63.8-116.8
				c9.4-17.3,30.7-18.3,44.5-6.1c3,2.8,5.5,6,7.4,9.7L908.8,330.8z"/>
			<path class="st3" d="M245.9,754.6l250.6-428.3c8.5-14.4,27.1-19.2,41.5-10.7c4.4,2.6,8.1,6.3,10.7,10.7l250.7,428.4L245.9,754.6z
				"/>
			<path class="st1" d="M522.6,320.9c7.4-0.1,14.2,3.8,17.9,10.2l49.9,85.3L782.7,745H262.5l194-331.6l48.2-82.4
				C508.4,324.7,515.2,320.8,522.6,320.9 M522.6,301.7c-14.1-0.1-27.2,7.4-34.3,19.6l-48.1,82.5L246,735.4l-16.9,28.7H816
				l-16.8-28.7L606.9,406.9L557,321.5c-7.1-12.3-20.3-19.8-34.5-19.6L522.6,301.7z"/>
			<path class="st2" d="M518.4,474.4h-2.8c-43.1-2.5-66.8-52.7-67.7-54.9l-0.9-1.9v-6.9l49.5-84.9c5.4-9,15.1-14.4,25.6-14.1
				c10.7-0.3,20.8,5.1,26.6,14l56.6,96.7l-12.4,3c-7.7,1.9-15.4,10.2-23.5,19.2C556.9,457.9,541.7,474.4,518.4,474.4z"/>
			<path class="st1" d="M522.1,321.2c7.3-0.2,14.3,3.3,18.4,9.4l49.9,85.6c-24.7,6-38.4,48.7-72,48.7h-2.3
				c-37.9-2.1-59.6-49.4-59.6-49.4v-2.2l48.2-82.8C508.4,324.6,515,321,522.1,321.2 M522.1,302L522.1,302
				c-13.9-0.2-26.8,7-33.9,18.9l-48,82.8l-2.6,4.5v11.5l1.8,3.8c1.1,2.3,26.9,57.6,75.8,60.4h3.3c27.5,0,45-19.2,57.8-33
				c6.4-7,13.7-15,18.8-16.2l24.8-6.1L607,406.5l-49.9-85.6l0,0c-7.5-11.9-20.7-18.9-34.8-18.7L522.1,302z"/>
			<path class="st4" d="M615.8,754.5l120-202.1c5.5-9.1,17.3-11.9,26.4-6.4c2.6,1.6,4.8,3.8,6.4,6.4l120.1,202.1H615.8z"/>
			<path class="st1" d="M752.2,552.7c3.4,0,6.5,1.7,8.3,4.6l23,38.7l88.7,149.1H632.4l89.4-150.5l22.2-37.4
				C745.7,554.5,748.9,552.7,752.2,552.7 M752.2,533.8c-10-0.1-19.4,5.2-24.5,13.9l-22.2,37.4l-89.4,150.4l-17,28.3h306.3l-17-28.6
				l-88.6-149.1l-23-38.7c-5.1-8.7-14.4-13.9-24.5-13.9L752.2,533.8z"/>
			<path class="st2" d="M711.1,591.5L736,552c5.6-9,17.4-11.8,26.4-6.2c2.5,1.6,4.6,3.7,6.2,6.2l29.6,49.9l-12.5,3
				c-2.8,0.7-5.6,1-8.4,1c-4.8-0.1-9.6-0.9-14.2-2.2c-4.9-1.3-10-2.2-15-2.5h-4.6c-6.5-0.1-13,0.8-19.2,2.8l-13,5.1L711.1,591.5z"/>
			<path class="st1" d="M752.2,552.4c3.4,0,6.5,1.7,8.3,4.6l23,38.8c-2,0.5-4.1,0.7-6.2,0.7c-8.4,0-15.4-3.8-28.7-4.7
				c-1.8,0-3.5,0-5.1,0c-7.8-0.2-15.6,1-23,3.6v-1l23.5-37.3C745.7,554.2,748.9,552.5,752.2,552.4 M752.2,533.6
				c-10-0.1-19.2,5.1-24.3,13.6l-23.4,37.1l-2.9,4.6v35.9l26-11.8c5.1-1.6,10.5-2.3,15.9-2.2c1.4,0,2.7,0,4,0
				c4.5,0.3,9,1.1,13.4,2.3c5.4,1.5,10.9,2.3,16.4,2.5c3.6,0,7.1-0.4,10.6-1.3l25-5.9l-13.1-22.1l-23-38.8
				c-5.1-8.7-14.5-14-24.5-13.9L752.2,533.6z"/>
			<line class="st5" x1="188.8" y1="750.7" x2="1177.2" y2="750.7"/>
			<path class="st1" d="M1177.2,768H188.8c-9.5,0-17.3-7.7-17.3-17.3c0-9.5,7.7-17.3,17.3-17.3h988.4c9.5,0,17.3,7.7,17.3,17.3
				C1194.5,760.3,1186.7,768,1177.2,768z"/>
			<circle class="st6" cx="622.3" cy="89.6" r="74.2"/>
			<path class="st7" d="M622.3,170.2c-44.5,0-80.6-36.1-80.6-80.6S577.8,9,622.3,9s80.6,36.1,80.6,80.6l0,0
				C702.8,134,666.8,170.1,622.3,170.2z M622.3,36.6c-29.2,0-53,23.7-53,53s23.7,53,53,53s53-23.7,53-53l0,0
				C675.3,60.4,651.5,36.7,622.3,36.6z"/>
		</g>
	</g>
</g>
</svg>
