<svg width="2732" height="412" viewBox="0 0 2732 412" fill="none" xmlns="http://www.w3.org/2000/svg">
<path d="M645 229.5H584.5V410.6H541.5V229.5H481V191.7H645V229.5Z" fill="#21E6C1"/>
<path d="M760.9 269.6L739.8 303C736 298.8 731.7 295.1 727.1 291.9C722.4 288.7 717.7 287.1 713 287.1C710.4 287.1 707.7 287.7 704.6 288.9C701.6 290.1 698.8 292.1 696.1 294.8C693.5 297.5 691.2 301.1 689.4 305.6C687.6 310.1 686.7 315.6 686.7 322.2V411.5H647.3V253.2H686.7V270.2C691.4 263.4 696.7 258.2 702.5 254.6C708.3 250.9 714.7 249.1 721.8 249.1C728.7 249.1 735.5 251 742.2 254.7C748.8 258.4 755 263.4 760.9 269.6Z" fill="#071E3D"/>
<path d="M903.3 407.5H863.9V399C857 403.8 849.6 407 841.9 408.9C834.1 410.7 826.1 411.6 817.9 411.6C810.2 411.6 803.3 410.5 797.1 408.2C790.9 405.9 785.5 402.6 780.9 398.3C776.3 394 772.8 388.9 770.4 383.1C767.9 377.3 766.7 370.8 766.7 363.7C766.7 354.8 768.7 346.9 772.6 340.3C776.5 333.6 781.9 328.1 788.6 323.6C795.4 319.1 803.3 315.8 812.3 313.6C821.3 311.4 831.1 310.3 841.5 310.3H864.2C864.2 301 861.2 293.6 855.2 288.1C849.2 282.6 840.5 279.9 829.2 279.9C823.7 279.9 818.1 280.9 812.2 282.9C806.4 284.9 800.5 288.6 794.7 293.9L771.4 270.3C779.8 262.3 789.5 256.1 800.6 251.7C811.6 247.3 823 245.1 834.7 245.1C845.7 245.1 855.4 246.8 864 250.3C872.6 253.8 879.5 258.2 884.7 263.7C891.6 270.6 896.4 278.4 899.3 287C902.1 295.6 903.5 306.5 903.5 319.9V407.5H903.3ZM863.9 368.1V338.8H845.8C840.3 338.8 835.2 339.2 830.3 339.9C825.5 340.6 821.3 341.9 817.7 343.6C814.1 345.3 811.3 347.6 809.2 350.3C807.1 353 806 356.3 806 360.2C806 365.7 808.1 370.2 812.4 373.6C816.7 377.1 822.2 378.8 829 378.8C834.8 378.8 840.6 377.9 846.4 376.1C852.2 374.2 858 371.5 863.9 368.1Z" fill="#071E3D"/>
<path d="M1079.4 252.2L1020 410.8H981.1L921.4 252.2H964.7L1000.6 358.5L1036.5 252.2H1079.4Z" fill="#071E3D"/>
<path d="M1260.8 328.1C1260.8 330.7 1260.7 333.3 1260.4 336C1260.1 338.7 1259.8 341.6 1259.4 344.5H1132.8C1134.3 349.1 1136.3 353.4 1139 357.5C1141.6 361.6 1144.9 365.2 1148.7 368.2C1152.5 371.2 1156.9 373.6 1161.7 375.3C1166.5 377 1171.9 377.9 1177.7 377.9C1184.8 377.9 1191.9 376.7 1199.1 374.2C1206.3 371.7 1212.2 368.4 1216.9 364.2L1241.8 389.1C1230.8 397.3 1220.1 403.1 1209.6 406.5C1199.1 409.9 1188 411.6 1176.3 411.6C1164.4 411.6 1153.3 409.4 1143 405C1132.7 400.6 1123.7 394.7 1116.2 387.2C1108.6 379.7 1102.6 370.9 1098.3 360.8C1094 350.7 1091.7 339.8 1091.7 328.3C1091.7 316.8 1093.9 306 1098.3 295.8C1102.7 285.7 1108.7 276.9 1116.4 269.4C1124.1 261.9 1133 256 1143.2 251.6C1153.4 247.2 1164.4 245 1176.1 245C1187.2 245 1197.9 247.1 1208.1 251.2C1218.3 255.3 1227.4 261 1235.2 268.3C1243 275.6 1249.3 284.3 1253.8 294.5C1258.5 304.7 1260.8 315.9 1260.8 328.1ZM1219.4 312.7C1216.3 302.7 1210.8 294.6 1202.8 288.5C1194.9 282.4 1185.9 279.3 1175.8 279.3C1165.9 279.3 1157.1 282.4 1149.2 288.5C1141.3 294.6 1135.9 302.7 1132.8 312.7H1219.4Z" fill="#071E3D"/>
<path d="M1352.3 406.7C1349.2 408.2 1345.7 409.3 1341.8 410.3C1337.9 411.2 1333.8 411.7 1329.6 411.7C1323.8 411.7 1318.1 410.9 1312.8 409.4C1307.4 407.8 1302.7 405.3 1298.7 401.9C1294.7 398.4 1291.5 393.9 1289.1 388.3C1286.7 382.7 1285.5 376 1285.5 368.2V180.2H1325.8V361.3C1325.8 367.9 1327.1 372.4 1329.8 374.9C1332.4 377.4 1335.6 378.6 1339.3 378.6C1343.9 378.6 1348.2 377.2 1352.4 374.5V406.7H1352.3Z" fill="#071E3D"/>
<path d="M1684.2 410.5H1637.6L1617.3 366.7H1511L1490.5 410.5H1444L1547.5 191.4H1580.6L1684.2 410.5ZM1600.7 331.4L1564.3 252.5L1527.3 331.4H1600.7Z" fill="#21E6C1"/>
<path d="M1816.8 363.1C1816.8 371 1815 377.9 1811.3 384.1C1807.6 390.2 1802.9 395.3 1797 399.4C1791.1 403.5 1784.6 406.6 1777.2 408.7C1769.9 410.8 1762.6 411.9 1755.5 411.9C1743.4 411.9 1732.3 409.7 1722.1 405.2C1711.9 400.7 1703 393.6 1695.3 383.7L1719.1 359.6C1723.8 365.6 1729.3 370.3 1735.5 373.7C1741.7 377.1 1748.4 378.8 1755.5 378.8C1761.7 378.8 1766.9 377.7 1771 375.4C1775.1 373.1 1777.2 369.7 1777.2 365.1C1777.2 360.4 1774.3 356.4 1768.4 353.2C1762.6 350 1754.3 346.9 1743.7 343.8C1737.5 342 1731.5 339.6 1725.6 336.8C1719.8 334 1714.5 330.5 1710 326.4C1705.4 322.3 1701.8 317.6 1699 312.3C1696.3 307 1694.9 300.9 1694.9 293.9C1694.9 286.2 1696.7 279.3 1700.3 273.2C1703.9 267.1 1708.5 262 1714.3 257.9C1720.1 253.8 1726.6 250.6 1733.9 248.5C1741.2 246.3 1748.6 245.2 1756.1 245.2C1780.3 245.2 1800 254.3 1815.4 272.6L1791.8 296.4C1787.2 290.7 1782 286.3 1776.2 283C1770.4 279.7 1764 278.1 1757 278.1C1754.6 278.1 1752.1 278.4 1749.5 279.1C1746.9 279.7 1744.4 280.7 1742.1 281.8C1739.8 283 1737.9 284.5 1736.5 286.5C1735 288.4 1734.3 290.6 1734.3 292.9C1734.3 297.1 1737.1 300.8 1742.7 303.9C1748.3 307 1756.3 310.1 1766.7 313.2C1773.5 315.2 1779.8 317.8 1785.9 320.9C1791.9 324 1797.2 327.6 1801.8 331.7C1806.4 335.8 1810 340.5 1812.6 345.7C1815.5 350.7 1816.8 356.6 1816.8 363.1Z" fill="#071E3D"/>
<path d="M1957.3 363.1C1957.3 371 1955.5 377.9 1951.8 384.1C1948.1 390.2 1943.4 395.3 1937.5 399.4C1931.6 403.5 1925.1 406.6 1917.7 408.7C1910.4 410.8 1903.1 411.9 1896 411.9C1883.9 411.9 1872.8 409.7 1862.6 405.2C1852.4 400.7 1843.5 393.6 1835.8 383.7L1859.6 359.6C1864.3 365.6 1869.8 370.3 1876 373.7C1882.2 377.1 1888.9 378.8 1896 378.8C1902.2 378.8 1907.4 377.7 1911.5 375.4C1915.6 373.1 1917.7 369.7 1917.7 365.1C1917.7 360.4 1914.8 356.4 1908.9 353.2C1903.1 350 1894.8 346.9 1884.2 343.8C1878 342 1872 339.6 1866.1 336.8C1860.3 334 1855 330.5 1850.5 326.4C1845.9 322.3 1842.3 317.6 1839.5 312.3C1836.8 307 1835.4 300.9 1835.4 293.9C1835.4 286.2 1837.2 279.3 1840.8 273.2C1844.4 267.1 1849 262 1854.8 257.9C1860.6 253.8 1867.1 250.6 1874.4 248.5C1881.7 246.3 1889.1 245.2 1896.6 245.2C1920.8 245.2 1940.5 254.3 1955.9 272.6L1932.3 296.4C1927.7 290.7 1922.5 286.3 1916.7 283C1910.9 279.7 1904.5 278.1 1897.5 278.1C1895.1 278.1 1892.6 278.4 1890 279.1C1887.4 279.7 1884.9 280.7 1882.6 281.8C1880.3 283 1878.4 284.5 1877 286.5C1875.5 288.4 1874.8 290.6 1874.8 292.9C1874.8 297.1 1877.6 300.8 1883.2 303.9C1888.8 307 1896.8 310.1 1907.2 313.2C1914 315.2 1920.3 317.8 1926.4 320.9C1932.4 324 1937.7 327.6 1942.3 331.7C1946.9 335.8 1950.5 340.5 1953.1 345.7C1956 350.7 1957.3 356.6 1957.3 363.1Z" fill="#071E3D"/>
<path d="M2022.8 225.5H1981.7V184.4H2022.8V225.5ZM2022.2 411.5H1982.2V252.9H2022.2V411.5Z" fill="#071E3D"/>
<path d="M2174.5 363.1C2174.5 371 2172.7 377.9 2169 384.1C2165.3 390.2 2160.6 395.3 2154.7 399.4C2148.8 403.5 2142.3 406.6 2134.9 408.7C2127.6 410.8 2120.3 411.9 2113.2 411.9C2101.1 411.9 2090 409.7 2079.8 405.2C2069.6 400.7 2060.7 393.6 2053 383.7L2076.8 359.6C2081.5 365.6 2087 370.3 2093.2 373.7C2099.4 377.1 2106.1 378.8 2113.2 378.8C2119.4 378.8 2124.6 377.7 2128.7 375.4C2132.8 373.1 2134.9 369.7 2134.9 365.1C2134.9 360.4 2132 356.4 2126.1 353.2C2120.3 350 2112 346.9 2101.4 343.8C2095.2 342 2089.2 339.6 2083.3 336.8C2077.5 334 2072.2 330.5 2067.7 326.4C2063.1 322.3 2059.5 317.6 2056.7 312.3C2054 307 2052.6 300.9 2052.6 293.9C2052.6 286.2 2054.4 279.3 2058 273.2C2061.6 267.1 2066.2 262 2072 257.9C2077.8 253.8 2084.3 250.6 2091.6 248.5C2098.9 246.3 2106.3 245.2 2113.8 245.2C2138 245.2 2157.7 254.3 2173.1 272.6L2149.5 296.4C2144.9 290.7 2139.7 286.3 2133.9 283C2128.1 279.7 2121.7 278.1 2114.7 278.1C2112.3 278.1 2109.8 278.4 2107.2 279.1C2104.6 279.7 2102.1 280.7 2099.8 281.8C2097.5 283 2095.6 284.5 2094.2 286.5C2092.7 288.4 2092 290.6 2092 292.9C2092 297.1 2094.8 300.8 2100.4 303.9C2106 307 2114 310.1 2124.4 313.2C2131.2 315.2 2137.5 317.8 2143.6 320.9C2149.6 324 2154.9 327.6 2159.5 331.7C2164.1 335.8 2167.7 340.5 2170.3 345.7C2173.2 350.7 2174.5 356.6 2174.5 363.1Z" fill="#071E3D"/>
<path d="M2287.1 404C2283.1 406.6 2278.4 408.5 2273.1 409.8C2267.8 411.1 2262.5 411.7 2257.2 411.7C2247.9 411.7 2240 410.6 2233.6 408.3C2227.2 406 2222.1 402.5 2218.3 397.8C2214.5 393.1 2211.7 387 2209.9 379.7C2208.2 372.4 2207.3 363.8 2207.3 354V284.7H2186.5V266.9C2199.3 261.6 2209.6 253.8 2217.6 243.3C2225.5 232.9 2231 219.4 2233.9 202.8H2246.8V249.1H2286.8V284.7H2246.8V356.7C2246.8 360.7 2247.3 364 2248.3 366.6C2249.3 369.2 2250.6 371.2 2252.3 372.6C2253.9 374.1 2255.8 375.1 2257.9 375.6C2260 376.1 2262.2 376.4 2264.6 376.4C2267.7 376.4 2271.4 375.9 2275.8 374.8C2280.2 373.7 2283.9 371.9 2287 369.3V404H2287.1Z" fill="#071E3D"/>
<path d="M2438.9 407.501H2399.5V399.001C2392.6 403.801 2385.2 407.001 2377.5 408.901C2369.7 410.701 2361.7 411.601 2353.5 411.601C2345.8 411.601 2338.9 410.501 2332.7 408.201C2326.5 405.901 2321.1 402.601 2316.5 398.301C2311.9 394.001 2308.4 388.901 2306 383.101C2303.5 377.301 2302.3 370.801 2302.3 363.701C2302.3 354.801 2304.3 346.901 2308.2 340.301C2312.1 333.601 2317.5 328.101 2324.2 323.601C2331 319.101 2338.9 315.801 2347.9 313.601C2356.9 311.401 2366.7 310.301 2377.1 310.301H2399.8C2399.8 301.001 2396.8 293.601 2390.8 288.101C2384.8 282.601 2376.1 279.901 2364.8 279.901C2359.3 279.901 2353.7 280.901 2347.8 282.901C2342 284.901 2336.1 288.601 2330.3 293.901L2307 270.301C2315.4 262.301 2325.1 256.101 2336.2 251.701C2347.2 247.301 2358.6 245.101 2370.3 245.101C2381.3 245.101 2391 246.801 2399.6 250.301C2408.2 253.801 2415.1 258.201 2420.3 263.701C2427.2 270.601 2432 278.401 2434.9 287.001C2437.7 295.601 2439.1 306.501 2439.1 319.901V407.501H2438.9ZM2399.4 368.101V338.801H2381.3C2375.8 338.801 2370.7 339.201 2365.8 339.901C2361 340.601 2356.8 341.901 2353.2 343.601C2349.6 345.301 2346.8 347.601 2344.7 350.301C2342.6 353.001 2341.5 356.301 2341.5 360.201C2341.5 365.701 2343.6 370.201 2347.9 373.601C2352.2 377.101 2357.7 378.801 2364.5 378.801C2370.3 378.801 2376.1 377.901 2381.9 376.101C2387.8 374.201 2393.6 371.501 2399.4 368.101Z" fill="#071E3D"/>
<path d="M2613.4 410.5H2574V316C2574 310.3 2573.1 305.4 2571.4 301.1C2569.7 296.8 2567.3 293.3 2564.4 290.4C2561.5 287.6 2558.1 285.5 2554.4 284.1C2550.7 282.7 2546.7 282 2542.7 282C2536.6 282 2530.7 283.101 2524.8 285.201C2518.9 287.301 2513.6 290.601 2508.8 295.201V410.5H2469.4V252.2H2508.8L2509.1 264C2511.5 261.6 2514.4 259.4 2517.9 257.4C2521.4 255.4 2525 253.7 2528.7 252.3C2532.4 250.9 2536.3 249.9 2540.2 249.1C2544.1 248.4 2547.9 248 2551.6 248C2559.6 248 2567.4 249.3 2574.7 251.8C2582.1 254.4 2588.7 258.3 2594.4 263.6C2600.2 268.9 2604.8 275.7 2608.2 284.1C2611.7 292.5 2613.4 302.5 2613.4 314V410.5Z" fill="#071E3D"/>
<path d="M2731.7 404C2727.7 406.6 2723 408.5 2717.7 409.8C2712.4 411.1 2707.1 411.7 2701.8 411.7C2692.5 411.7 2684.6 410.6 2678.2 408.3C2671.8 406 2666.7 402.5 2662.9 397.8C2659.1 393.1 2656.3 387 2654.5 379.7C2652.8 372.4 2651.9 363.8 2651.9 354V284.7H2631.1V266.9C2643.9 261.6 2654.2 253.8 2662.2 243.3C2670.1 232.9 2675.6 219.4 2678.5 202.8H2691.4V249.1H2731.4V284.7H2691.4V356.7C2691.4 360.7 2691.9 364 2692.9 366.6C2693.9 369.2 2695.2 371.2 2696.9 372.6C2698.5 374.1 2700.4 375.1 2702.5 375.6C2704.6 376.1 2706.8 376.4 2709.2 376.4C2712.3 376.4 2716 375.9 2720.4 374.8C2724.8 373.7 2728.5 371.9 2731.6 369.3V404H2731.7Z" fill="#071E3D"/>
<path d="M409.6 276.1V297.2C432.8 297.3 451.6 316.1 451.6 339.4C451.6 350.5 447.1 361.2 439.2 369.1C426.4 381.9 408.8 383.9 373.2 386.8C369.2 387.1 365.1 387.5 360.7 387.9C361.1 383.7 361.4 379.6 361.7 375.8C364.1 347.4 365.6 328.7 374.2 315.8C382.1 304.1 395.4 297.1 409.5 297.2L409.6 276.1ZM409.6 276.1C388.4 276 368.6 286.5 356.7 304.1C341.6 326.8 343 357.2 337.9 403.8C337.5 407.2 340 410.3 343.4 410.7C343.6 410.7 343.8 410.7 344.1 410.7C344.3 410.7 344.6 410.7 344.8 410.7C398.2 404.8 430.5 407.6 454.1 384C478.8 359.3 478.8 319.2 454.1 294.5C453.4 293.8 452.7 293.2 452 292.5C440.5 282 425.3 276.1 409.6 276.1Z" fill="#21E6C1"/>
<path d="M409.8 327.2C416.3 327.2 421.5 332.5 421.5 338.9C421.5 345.3 416.2 350.6 409.8 350.6C403.3 350.6 398.1 345.3 398.1 338.9C398.1 335.8 399.3 332.8 401.5 330.6C403.7 328.4 406.7 327.2 409.8 327.2ZM409.8 310.3C394 310.3 381.2 323.1 381.2 338.9C381.2 354.7 394 367.5 409.8 367.5C425.6 367.5 438.4 354.7 438.4 338.9C438.4 331.3 435.4 324 430 318.7C424.6 313.3 417.4 310.3 409.8 310.3Z" fill="#21E6C1"/>
<path d="M97.5 281.5L54.8 410.7H0L139.6 0H203.6L343.7 410.7H287L243.1 281.5H97.5ZM232.2 240.1L192 121.9C182.9 95.1 176.8 70.7 170.7 46.9H169.5C163.4 71.3 156.7 96.3 148.8 121.2L108.6 240.1H232.2Z" fill="url(#paint0_linear)"/>
<path d="M144.6 281.3H44L58 240.1H285.5L299.6 281.3H193.9V410.7H144.6V281.3V281.3Z" fill="url(#paint1_linear)"/>
<defs>
<linearGradient id="paint0_linear" x1="0" y1="205.365" x2="343.67" y2="205.365" gradientUnits="userSpaceOnUse">
<stop stop-color="#21E6C1"/>
<stop offset="1" stop-color="#21B2C1"/>
</linearGradient>
<linearGradient id="paint1_linear" x1="44" y1="325.415" x2="299.51" y2="325.415" gradientUnits="userSpaceOnUse">
<stop stop-color="#21E6C1"/>
<stop offset="1" stop-color="#21B2C1"/>
</linearGradient>
</defs>
</svg>
