<?xml version="1.0" encoding="utf-8"?>
<!-- Generator: Adobe Illustrator 23.0.1, SVG Export Plug-In . SVG Version: 6.00 Build 0)  -->
<svg version="1.1" id="Layer_1" xmlns="http://www.w3.org/2000/svg" xmlns:xlink="http://www.w3.org/1999/xlink" x="0px" y="0px"
	 viewBox="0 0 497.4 483" style="enable-background:new 0 0 497.4 483;" xml:space="preserve">
<style type="text/css">
	.st0{fill:#21E6C1;}
	.st1{fill:url(#SVGID_1_);}
	.st2{fill:url(#SVGID_2_);}
</style>
<title>main logo 2</title>
<g>
	<g>
		<g id="Layer_1-2">
			<path class="st0" d="M431,290.5v22.2c24.5,0.1,44.2,20,44.1,44.5c0,11.7-4.7,22.9-12.9,31.1c-13.4,13.4-32,15.5-69.4,18.7
				c-4.2,0.4-8.5,0.7-13.2,1.1c0.4-4.4,0.8-8.7,1.1-12.7c2.5-29.9,4.1-49.6,13.2-63.1c8.3-12.3,22.3-19.6,37.1-19.5V290.5
				 M431,290.5c-22.3-0.1-43.2,11-55.6,29.5c-15.9,23.8-14.4,55.8-19.8,104.9c-0.4,3.6,2.2,6.8,5.8,7.2c0.2,0,0.5,0,0.7,0h0.7
				c56.2-6.2,90.2-3.2,115-28.1c26-26,26-68.2,0-94.2c-0.7-0.7-1.4-1.4-2.2-2.1C463.5,296.7,447.5,290.5,431,290.5z"/>
			<path class="st0" d="M431.1,344.2c6.8,0,12.3,5.5,12.3,12.4c0,6.8-5.5,12.3-12.4,12.3c-6.8,0-12.3-5.5-12.3-12.4
				c0-3.3,1.3-6.4,3.6-8.7C424.7,345.5,427.9,344.2,431.1,344.2 M431.1,326.4c-16.6,0-30.1,13.5-30.1,30.2
				c0,16.6,13.5,30.1,30.2,30.1c16.6,0,30.1-13.5,30.1-30.2c0-8-3.2-15.6-8.8-21.2C446.8,329.6,439.2,326.4,431.1,326.4z"/>
			
				<linearGradient id="SVGID_1_" gradientUnits="userSpaceOnUse" x1="0" y1="413.9281" x2="361.5944" y2="413.9281" gradientTransform="matrix(1 0 0 -1 0 630)">
				<stop  offset="0" style="stop-color:#21E6C1"/>
				<stop  offset="1" style="stop-color:#21B2C1"/>
			</linearGradient>
			<path class="st1" d="M102.6,296.2L57.7,432.1H0L146.8,0h67.3l147.5,432.1H302l-46.2-135.9H102.6z M244.3,252.6L202,128.3
				c-9.6-28.2-16-53.9-22.4-78.9h-1.3c-6.4,25.6-13.4,51.9-21.8,78.2l-42.3,125H244.3z"/>
			
				<image style="overflow:visible;opacity:0.3;enable-background:new    ;" width="248" height="186" xlink:href="E433E884.png"  transform="matrix(1.4147 0 0 1.4147 5.6136 219.8554)">
			</image>
			
				<linearGradient id="SVGID_2_" gradientUnits="userSpaceOnUse" x1="46.2696" y1="287.6218" x2="315.1256" y2="287.6218" gradientTransform="matrix(1 0 0 -1 0 630)">
				<stop  offset="0" style="stop-color:#21E6C1"/>
				<stop  offset="1" style="stop-color:#21B2C1"/>
			</linearGradient>
			<path class="st2" d="M152.2,296H46.3L61,252.6h239.3l14.8,43.3H204v136.2h-51.8V296z"/>
		</g>
	</g>
</g>
</svg>
