<?xml version="1.0" encoding="utf-8"?>
<!-- Generator: Adobe Illustrator 23.0.1, SVG Export Plug-In . SVG Version: 6.00 Build 0)  -->
<svg version="1.1" id="Layer_1" xmlns="http://www.w3.org/2000/svg" xmlns:xlink="http://www.w3.org/1999/xlink" x="0px" y="0px"
	 viewBox="0 0 2738.5 482.9" style="enable-background:new 0 0 2738.5 482.9;" xml:space="preserve">
<style type="text/css">
	.st0{enable-background:new    ;}
	.st1{fill:#21E6C1;}
	.st2{fill:#071E3D;}
	.st3{fill:url(#SVGID_1_);}
	.st4{fill:url(#SVGID_2_);}
</style>
<title>travel assistant 3</title>
<g>
	<g class="st0">
		<path class="st1" d="M645,217.5h-60.5v181.1h-43V217.5h-60.5v-37.8H645V217.5z"/>
	</g>
	<g class="st0">
		<path class="st2" d="M760.9,256.6L739.8,290c-3.8-4.2-8.1-7.9-12.7-11.1c-4.7-3.2-9.4-4.8-14.1-4.8c-2.6,0-5.3,0.6-8.4,1.8
			c-3,1.2-5.8,3.2-8.5,5.9c-2.6,2.7-4.9,6.3-6.7,10.8c-1.8,4.5-2.7,10-2.7,16.6v89.3h-39.4V240.2h39.4v17c4.7-6.8,10-12,15.8-15.6
			c5.8-3.7,12.2-5.5,19.3-5.5c6.9,0,13.7,1.9,20.4,5.6C748.8,245.4,755,250.4,760.9,256.6z"/>
		<path class="st2" d="M903.3,398.5h-39.4V390c-6.9,4.8-14.3,8-22,9.9c-7.8,1.8-15.8,2.7-24,2.7c-7.7,0-14.6-1.1-20.8-3.4
			c-6.2-2.3-11.6-5.6-16.2-9.9c-4.6-4.3-8.1-9.4-10.5-15.2c-2.5-5.8-3.7-12.3-3.7-19.4c0-8.9,2-16.8,5.9-23.4
			c3.9-6.7,9.3-12.2,16-16.7c6.8-4.5,14.7-7.8,23.7-10c9-2.2,18.8-3.3,29.2-3.3h22.7c0-9.3-3-16.7-9-22.2c-6-5.5-14.7-8.2-26-8.2
			c-5.5,0-11.1,1-17,3c-5.8,2-11.7,5.7-17.5,11l-23.3-23.6c8.4-8,18.1-14.2,29.2-18.6c11-4.4,22.4-6.6,34.1-6.6
			c11,0,20.7,1.7,29.3,5.2c8.6,3.5,15.5,7.9,20.7,13.4c6.9,6.9,11.7,14.7,14.6,23.3c2.8,8.6,4.2,19.5,4.2,32.9V398.5z M863.9,359.1
			v-29.3h-18.1c-5.5,0-10.6,0.4-15.5,1.1c-4.8,0.7-9,2-12.6,3.7c-3.6,1.7-6.4,4-8.5,6.7c-2.1,2.7-3.2,6-3.2,9.9
			c0,5.5,2.1,10,6.4,13.4c4.3,3.5,9.8,5.2,16.6,5.2c5.8,0,11.6-0.9,17.4-2.7C852.2,365.2,858,362.5,863.9,359.1z"/>
		<path class="st2" d="M1079.4,240.2L1020,398.8h-38.9l-59.7-158.6h43.3l35.9,106.3l35.9-106.3H1079.4z"/>
		<path class="st2" d="M1260.8,319.1c0,2.6-0.1,5.2-0.4,7.9c-0.3,2.7-0.6,5.6-1,8.5h-126.6c1.5,4.6,3.5,8.9,6.2,13
			c2.6,4.1,5.9,7.7,9.7,10.7s8.2,5.4,13,7.1c4.8,1.7,10.2,2.6,16,2.6c7.1,0,14.2-1.2,21.4-3.7s13.1-5.8,17.8-10l24.9,24.9
			c-11,8.2-21.7,14-32.2,17.4c-10.5,3.4-21.6,5.1-33.3,5.1c-11.9,0-23-2.2-33.3-6.6c-10.3-4.4-19.3-10.3-26.8-17.8
			c-7.6-7.5-13.6-16.3-17.9-26.4s-6.6-21-6.6-32.5c0-11.5,2.2-22.3,6.6-32.5c4.4-10.1,10.4-18.9,18.1-26.4
			c7.7-7.5,16.6-13.4,26.8-17.8c10.2-4.4,21.2-6.6,32.9-6.6c11.1,0,21.8,2.1,32,6.2c10.2,4.1,19.3,9.8,27.1,17.1
			c7.8,7.3,14.1,16,18.6,26.2C1258.5,295.7,1260.8,306.9,1260.8,319.1z M1219.4,303.7c-3.1-10-8.6-18.1-16.6-24.2
			c-7.9-6.1-16.9-9.2-27-9.2c-9.9,0-18.7,3.1-26.6,9.2c-7.9,6.1-13.3,14.2-16.4,24.2H1219.4z"/>
		<path class="st2" d="M1352.3,397.7c-3.1,1.5-6.6,2.6-10.5,3.6c-3.9,0.9-8,1.4-12.2,1.4c-5.8,0-11.5-0.8-16.8-2.3
			c-5.4-1.6-10.1-4.1-14.1-7.5c-4-3.5-7.2-8-9.6-13.6c-2.4-5.6-3.6-12.3-3.6-20.1V171.2h40.3v181.1c0,6.6,1.3,11.1,4,13.6
			c2.6,2.5,5.8,3.7,9.5,3.7c4.6,0,8.9-1.4,13.1-4.1V397.7z"/>
	</g>
	<g class="st0">
		<path class="st1" d="M1684.2,398.5h-46.6l-20.3-43.8h-106.3l-20.5,43.8H1444l103.5-219.1h33.1L1684.2,398.5z M1600.7,319.4
			l-36.4-78.9l-37,78.9H1600.7z"/>
	</g>
	<g class="st0">
		<path class="st2" d="M1816.8,354.1c0,7.9-1.8,14.8-5.5,21c-3.7,6.1-8.4,11.2-14.3,15.3c-5.9,4.1-12.4,7.2-19.8,9.3
			c-7.3,2.1-14.6,3.2-21.7,3.2c-12.1,0-23.2-2.2-33.4-6.7c-10.2-4.5-19.1-11.6-26.8-21.5l23.8-24.1c4.7,6,10.2,10.7,16.4,14.1
			c6.2,3.4,12.9,5.1,20,5.1c6.2,0,11.4-1.1,15.5-3.4c4.1-2.3,6.2-5.7,6.2-10.3c0-4.7-2.9-8.7-8.8-11.9c-5.8-3.2-14.1-6.3-24.7-9.4
			c-6.2-1.8-12.2-4.2-18.1-7c-5.8-2.8-11.1-6.3-15.6-10.4c-4.6-4.1-8.2-8.8-11-14.1c-2.7-5.3-4.1-11.4-4.1-18.4
			c0-7.7,1.8-14.6,5.4-20.7c3.6-6.1,8.2-11.2,14-15.3c5.8-4.1,12.3-7.3,19.6-9.4c7.3-2.2,14.7-3.3,22.2-3.3
			c24.2,0,43.9,9.1,59.3,27.4l-23.6,23.8c-4.6-5.7-9.8-10.1-15.6-13.4c-5.8-3.3-12.2-4.9-19.2-4.9c-2.4,0-4.9,0.3-7.5,1
			c-2.6,0.6-5.1,1.6-7.4,2.7c-2.3,1.2-4.2,2.7-5.6,4.7c-1.5,1.9-2.2,4.1-2.2,6.4c0,4.2,2.8,7.9,8.4,11c5.6,3.1,13.6,6.2,24,9.3
			c6.8,2,13.1,4.6,19.2,7.7c6,3.1,11.3,6.7,15.9,10.8c4.6,4.1,8.2,8.8,10.8,14C1815.5,341.7,1816.8,347.6,1816.8,354.1z"/>
		<path class="st2" d="M1957.3,354.1c0,7.9-1.8,14.8-5.5,21c-3.7,6.1-8.4,11.2-14.3,15.3c-5.9,4.1-12.4,7.2-19.8,9.3
			c-7.3,2.1-14.6,3.2-21.7,3.2c-12.1,0-23.2-2.2-33.4-6.7c-10.2-4.5-19.1-11.6-26.8-21.5l23.8-24.1c4.7,6,10.2,10.7,16.4,14.1
			c6.2,3.4,12.9,5.1,20,5.1c6.2,0,11.4-1.1,15.5-3.4c4.1-2.3,6.2-5.7,6.2-10.3c0-4.7-2.9-8.7-8.8-11.9c-5.8-3.2-14.1-6.3-24.7-9.4
			c-6.2-1.8-12.2-4.2-18.1-7c-5.8-2.8-11.1-6.3-15.6-10.4c-4.6-4.1-8.2-8.8-11-14.1c-2.7-5.3-4.1-11.4-4.1-18.4
			c0-7.7,1.8-14.6,5.4-20.7c3.6-6.1,8.2-11.2,14-15.3c5.8-4.1,12.3-7.3,19.6-9.4c7.3-2.2,14.7-3.3,22.2-3.3
			c24.2,0,43.9,9.1,59.3,27.4l-23.6,23.8c-4.6-5.7-9.8-10.1-15.6-13.4c-5.8-3.3-12.2-4.9-19.2-4.9c-2.4,0-4.9,0.3-7.5,1
			c-2.6,0.6-5.1,1.6-7.4,2.7c-2.3,1.2-4.2,2.7-5.6,4.7c-1.5,1.9-2.2,4.1-2.2,6.4c0,4.2,2.8,7.9,8.4,11c5.6,3.1,13.6,6.2,24,9.3
			c6.8,2,13.1,4.6,19.2,7.7c6,3.1,11.3,6.7,15.9,10.8c4.6,4.1,8.2,8.8,10.8,14C1956,341.7,1957.3,347.6,1957.3,354.1z"/>
		<path class="st2" d="M2022.8,212.5h-41.1v-41.1h41.1V212.5z M2022.2,398.5h-40V239.9h40V398.5z"/>
		<path class="st2" d="M2174.5,354.1c0,7.9-1.8,14.8-5.5,21c-3.7,6.1-8.4,11.2-14.3,15.3c-5.9,4.1-12.4,7.2-19.8,9.3
			c-7.3,2.1-14.6,3.2-21.7,3.2c-12.1,0-23.2-2.2-33.4-6.7c-10.2-4.5-19.1-11.6-26.8-21.5l23.8-24.1c4.7,6,10.2,10.7,16.4,14.1
			c6.2,3.4,12.9,5.1,20,5.1c6.2,0,11.4-1.1,15.5-3.4c4.1-2.3,6.2-5.7,6.2-10.3c0-4.7-2.9-8.7-8.8-11.9c-5.8-3.2-14.1-6.3-24.7-9.4
			c-6.2-1.8-12.2-4.2-18.1-7c-5.8-2.8-11.1-6.3-15.6-10.4c-4.6-4.1-8.2-8.8-11-14.1c-2.7-5.3-4.1-11.4-4.1-18.4
			c0-7.7,1.8-14.6,5.4-20.7c3.6-6.1,8.2-11.2,14-15.3c5.8-4.1,12.3-7.3,19.6-9.4c7.3-2.2,14.7-3.3,22.2-3.3
			c24.2,0,43.9,9.1,59.3,27.4l-23.6,23.8c-4.6-5.7-9.8-10.1-15.6-13.4c-5.8-3.3-12.2-4.9-19.2-4.9c-2.4,0-4.9,0.3-7.5,1
			c-2.6,0.6-5.1,1.6-7.4,2.7c-2.3,1.2-4.2,2.7-5.6,4.7c-1.5,1.9-2.2,4.1-2.2,6.4c0,4.2,2.8,7.9,8.4,11c5.6,3.1,13.6,6.2,24,9.3
			c6.8,2,13.1,4.6,19.2,7.7c6,3.1,11.3,6.7,15.9,10.8c4.6,4.1,8.2,8.8,10.8,14C2173.2,341.7,2174.5,347.6,2174.5,354.1z"/>
		<path class="st2" d="M2287.1,395c-4,2.6-8.7,4.5-14,5.8c-5.3,1.3-10.6,1.9-15.9,1.9c-9.3,0-17.2-1.1-23.6-3.4
			c-6.4-2.3-11.5-5.8-15.3-10.5c-3.8-4.7-6.6-10.8-8.4-18.1c-1.7-7.3-2.6-15.9-2.6-25.7v-69.3h-20.8v-17.8
			c12.8-5.3,23.1-13.1,31.1-23.6c7.9-10.4,13.4-23.9,16.3-40.5h12.9v46.3h40v35.6h-40v72c0,4,0.5,7.3,1.5,9.9c1,2.6,2.3,4.6,4,6
			c1.6,1.5,3.5,2.5,5.6,3c2.1,0.5,4.3,0.8,6.7,0.8c3.1,0,6.8-0.5,11.2-1.6s8.1-2.9,11.2-5.5V395z"/>
		<path class="st2" d="M2438.9,398.5h-39.4V390c-6.9,4.8-14.3,8-22,9.9c-7.8,1.8-15.8,2.7-24,2.7c-7.7,0-14.6-1.1-20.8-3.4
			c-6.2-2.3-11.6-5.6-16.2-9.9c-4.6-4.3-8.1-9.4-10.5-15.2c-2.5-5.8-3.7-12.3-3.7-19.4c0-8.9,2-16.8,5.9-23.4
			c3.9-6.7,9.3-12.2,16-16.7c6.8-4.5,14.7-7.8,23.7-10c9-2.2,18.8-3.3,29.2-3.3h22.7c0-9.3-3-16.7-9-22.2c-6-5.5-14.7-8.2-26-8.2
			c-5.5,0-11.1,1-17,3c-5.8,2-11.7,5.7-17.5,11l-23.3-23.6c8.4-8,18.1-14.2,29.2-18.6c11-4.4,22.4-6.6,34.1-6.6
			c11,0,20.7,1.7,29.3,5.2c8.6,3.5,15.5,7.9,20.7,13.4c6.9,6.9,11.7,14.7,14.6,23.3c2.8,8.6,4.2,19.5,4.2,32.9V398.5z M2399.4,359.1
			v-29.3h-18.1c-5.5,0-10.6,0.4-15.5,1.1c-4.8,0.7-9,2-12.6,3.7c-3.6,1.7-6.4,4-8.5,6.7c-2.1,2.7-3.2,6-3.2,9.9
			c0,5.5,2.1,10,6.4,13.4c4.3,3.5,9.8,5.2,16.6,5.2c5.8,0,11.6-0.9,17.4-2.7C2387.8,365.2,2393.6,362.5,2399.4,359.1z"/>
		<path class="st2" d="M2613.4,398.5h-39.4V304c0-5.7-0.9-10.6-2.6-14.9c-1.7-4.3-4.1-7.8-7-10.7c-2.9-2.8-6.3-4.9-10-6.3
			s-7.7-2.1-11.7-2.1c-6.1,0-12,1.1-17.9,3.2c-5.9,2.1-11.2,5.4-16,10v115.3h-39.4V240.2h39.4l0.3,11.8c2.4-2.4,5.3-4.6,8.8-6.6
			c3.5-2,7.1-3.7,10.8-5.1c3.7-1.4,7.6-2.4,11.5-3.2c3.9-0.7,7.7-1.1,11.4-1.1c8,0,15.8,1.3,23.1,3.8c7.4,2.6,14,6.5,19.7,11.8
			c5.8,5.3,10.4,12.1,13.8,20.5c3.5,8.4,5.2,18.4,5.2,29.9V398.5z"/>
		<path class="st2" d="M2731.7,395c-4,2.6-8.7,4.5-14,5.8c-5.3,1.3-10.6,1.9-15.9,1.9c-9.3,0-17.2-1.1-23.6-3.4
			c-6.4-2.3-11.5-5.8-15.3-10.5c-3.8-4.7-6.6-10.8-8.4-18.1c-1.7-7.3-2.6-15.9-2.6-25.7v-69.3h-20.8v-17.8
			c12.8-5.3,23.1-13.1,31.1-23.6c7.9-10.4,13.4-23.9,16.3-40.5h12.9v46.3h40v35.6h-40v72c0,4,0.5,7.3,1.5,9.9c1,2.6,2.3,4.6,4,6
			c1.6,1.5,3.5,2.5,5.6,3c2.1,0.5,4.3,0.8,6.7,0.8c3.1,0,6.8-0.5,11.2-1.6s8.1-2.9,11.2-5.5V395z"/>
	</g>
</g>
<path class="st1" d="M409.6,276.1v21.1c23.2,0.1,42,18.9,42,42.2c0,11.1-4.5,21.8-12.4,29.7c-12.8,12.8-30.4,14.8-66,17.7
	c-4,0.3-8.1,0.7-12.5,1.1c0.4-4.2,0.7-8.3,1-12.1c2.4-28.4,3.9-47.1,12.5-60c7.9-11.7,21.2-18.7,35.3-18.6L409.6,276.1 M409.6,276.1
	c-21.2-0.1-41,10.4-52.9,28c-15.1,22.7-13.7,53.1-18.8,99.7c-0.4,3.4,2.1,6.5,5.5,6.9c0.2,0,0.4,0,0.7,0c0.2,0,0.5,0,0.7,0
	c53.4-5.9,85.7-3.1,109.3-26.7c24.7-24.7,24.7-64.8,0-89.5c-0.7-0.7-1.4-1.3-2.1-2C440.5,282,425.3,276.1,409.6,276.1L409.6,276.1z"
	/>
<path class="st1" d="M409.8,327.2c6.5,0,11.7,5.3,11.7,11.7s-5.3,11.7-11.7,11.7c-6.5,0-11.7-5.3-11.7-11.7c0-3.1,1.2-6.1,3.4-8.3
	C403.7,328.4,406.7,327.2,409.8,327.2 M409.8,310.3c-15.8,0-28.6,12.8-28.6,28.6c0,15.8,12.8,28.6,28.6,28.6
	c15.8,0,28.6-12.8,28.6-28.6c0-7.6-3-14.9-8.4-20.2C424.6,313.3,417.4,310.3,409.8,310.3L409.8,310.3z"/>
<linearGradient id="SVGID_1_" gradientUnits="userSpaceOnUse" x1="0" y1="278.635" x2="343.67" y2="278.635" gradientTransform="matrix(1 0 0 -1 0 484)">
	<stop  offset="0" style="stop-color:#21E6C1"/>
	<stop  offset="1" style="stop-color:#21B2C1"/>
</linearGradient>
<path class="st3" d="M97.5,281.5L54.8,410.7H0L139.6,0h64l140.1,410.7H287l-43.9-129.2L97.5,281.5z M232.2,240.1l-40.2-118.2
	c-9.1-26.8-15.2-51.2-21.3-75h-1.2c-6.1,24.4-12.8,49.4-20.7,74.3l-40.2,118.9H232.2z"/>
<image style="overflow:visible;opacity:0.3;enable-background:new    ;" width="333" height="249" xlink:href="FC92C8EA.png"  transform="matrix(0.996 0 0 0.996 5.8387 209.31)">
</image>
<linearGradient id="SVGID_2_" gradientUnits="userSpaceOnUse" x1="44" y1="158.585" x2="299.51" y2="158.585" gradientTransform="matrix(1 0 0 -1 0 484)">
	<stop  offset="0" style="stop-color:#21E6C1"/>
	<stop  offset="1" style="stop-color:#21B2C1"/>
</linearGradient>
<path class="st4" d="M144.6,281.3H44l14-41.2h227.5l14.1,41.2H193.9v129.4h-49.3V281.3z"/>
</svg>
